<?xml version="1.0" encoding="UTF-8"?>
<!-- Generator: Adobe Illustrator 24.0.0, SVG Export Plug-In . SVG Version: 6.00 Build 0)  -->
<svg version="1.1" id="Layer_1" xmlnsCc="http://creativecommons.org/ns#" xmlnsDc="http://purl.org/dc/elements/1.1/" xmlnsInkscape="http://www.inkscape.org/namespaces/inkscape" xmlnsRdf="http://www.w3.org/1999/02/22-rdf-syntax-ns#" xmlnsSodipodi="http://sodipodi.sourceforge.net/DTD/sodipodi-0.dtd" xmlnsSvg="http://www.w3.org/2000/svg" xmlns="http://www.w3.org/2000/svg" xmlnsXlink="http://www.w3.org/1999/xlink" x="0px" y="0px" viewBox="0 0 92.3 75.2" style="enable-background:new 0 0 92.3 75.2;" xmlSpace="preserve">

<g transform="translate(0,-952.36218)">
	<g transform="matrix(0.13794725,0,0,0.13794725,-5.2935097,924.95886)">
		<path fill="#8c8c8c" d="M587.7,729c0.7-0.3,1.8-0.3,2.5,0s0.1,0.5-1.2,0.5S587,729.2,587.7,729z M524.7,720.9c1.2-0.2,3-0.2,4,0s-0.1,0.4-2.3,0.4    C524.2,721.4,523.4,721.2,524.7,720.9z M450.8,677.9c-1.2-1.6-1.2-1.6,0.4-0.4c1.7,1.3,2.2,2.1,1.4,2.1    C452.3,679.6,451.5,678.8,450.8,677.9z M572.7,675.9c0.7-0.3,1.6-0.3,1.9,0.1c0.3,0.3-0.3,0.6-1.3,0.5    C572.2,676.5,571.9,676.3,572.7,675.9z M473.9,671.6c-0.9-0.6-1-1-0.3-1c0.7,0,1.5,0.4,1.8,1C476.2,672.9,475.8,672.9,473.9,671.6    z M552.9,622.2c0-0.2,0.8-1,1.8-1.8c1.6-1.2,1.6-1.2,0.4,0.4C553.7,622.5,552.9,623.1,552.9,622.2z M443.1,616.6    c0-1.4,0.2-1.9,0.5-1.2s0.3,1.8,0,2.5S443.1,618,443.1,616.6z M443.5,607.9c-0.5-1.4-0.4-1.5,0.6-0.6c0.7,0.7,1,1.5,0.7,1.8    C444.4,609.5,443.9,608.9,443.5,607.9z M341,607c0-1.2,0.3-1.4,0.6-0.6c0.3,0.7,0.3,1.6-0.1,1.9C341.2,608.7,341,608.1,341,607z     M455,596c0-1.2,0.3-1.4,0.6-0.6c0.3,0.7,0.3,1.6-0.1,1.9C455.2,597.7,455,597.1,455,596z M424.9,579.2c0-0.2,0.8-1,1.8-1.8    c1.6-1.2,1.6-1.2,0.4,0.4C425.7,579.5,424.9,580.1,424.9,579.2z M131.5,571.4c0.3-0.5,0.9-0.6,1.5-0.3c1.3,0.8,1.2,1.1-0.5,1.1    C131.7,572.3,131.2,571.9,131.5,571.4z M417.1,570.6c0-1.4,0.2-1.9,0.5-1.3s0.3,1.8,0,2.5S417.1,572,417.1,570.6z M353.9,570.2    c0-0.2,0.8-1,1.8-1.8c1.6-1.2,1.6-1.2,0.4,0.4C354.7,570.5,353.9,571.1,353.9,570.2z M358.9,565.2c0-0.2,0.8-1,1.8-1.8    c1.6-1.2,1.6-1.2,0.4,0.4C359.7,565.5,358.9,566.1,358.9,565.2z M565.7,561.9c0.7-0.3,1.6-0.3,1.9,0.1c0.3,0.3-0.3,0.6-1.3,0.5    C565.2,562.5,564.9,562.3,565.7,561.9z M276.7,536.9c0.7-0.3,1.6-0.3,1.9,0.1s-0.3,0.6-1.3,0.5    C276.2,537.5,275.9,537.3,276.7,536.9z M546.4,516.6c-0.4-0.6-0.4-1.3-0.2-1.5s0.7,0.2,1.1,1.1    C547.9,517.8,547.4,518.2,546.4,516.6z M174.9,515.7c0-0.9,3-2.4,3.6-1.9c0.2,0.2-0.6,0.9-1.6,1.5    C175.8,516.1,174.9,516.2,174.9,515.7z M592.9,466.6c-0.9-0.6-1-1-0.3-1c0.7,0,1.5,0.4,1.8,1C595.2,467.9,594.8,467.9,592.9,466.6    z M597.7,455c0.7-0.3,1.8-0.3,2.5,0s0.1,0.5-1.2,0.5S597,455.2,597.7,455z M172.7,447.9c0.7-0.3,1.6-0.3,1.9,0.1    c0.3,0.3-0.3,0.6-1.3,0.5C172.2,448.5,171.9,448.3,172.7,447.9z M43.9,446.7c0-0.5,0.4-1.2,1-1.6c0.6-0.4,0.7,0.1,0.4,0.9    C44.6,447.8,43.9,448.1,43.9,446.7z M568.9,440.1c-2.4-2.5-4.2-4.5-3.9-4.5c0.3,0,2.5,2,4.9,4.5c2.4,2.5,4.2,4.5,3.9,4.5    C573.6,444.6,571.4,442.6,568.9,440.1z M526.7,440.9c0.7-0.3,1.6-0.3,1.9,0.1c0.3,0.3-0.3,0.6-1.3,0.5    C526.2,441.5,525.9,441.3,526.7,440.9z M529.9,434.2c0-0.2,0.8-1,1.8-1.8c1.6-1.2,1.6-1.2,0.4,0.4    C530.7,434.5,529.9,435.1,529.9,434.2z M176.4,432.6c-1-1.7-0.1-1.9,1.3-0.3c0.7,0.8,0.8,1.4,0.3,1.4    C177.5,433.6,176.7,433.1,176.4,432.6z M159.9,427.2c0-0.2,0.7-0.7,1.6-1c0.9-0.3,1.3-0.2,0.9,0.4    C161.8,427.6,159.9,428,159.9,427.2z M174.7,416.5c0.7-0.7,1.5-1,1.8-0.7s-0.2,0.9-1.2,1.2C173.8,417.6,173.7,417.5,174.7,416.5z     M609,413c0-1.2,0.3-1.4,0.6-0.6c0.3,0.7,0.3,1.6-0.1,1.9S609,414.1,609,413z M605.8,389.9c-1.2-1.6-1.2-1.6,0.4-0.4    c1.7,1.3,2.2,2.1,1.4,2.1C607.3,391.6,606.5,390.8,605.8,389.9z M599.4,364.4l-2.9-3.2l3.2,2.9c1.8,1.6,3.2,3.1,3.2,3.2    C602.9,368.1,602.1,367.4,599.4,364.4z M582.8,363.9c-1.2-1.6-1.2-1.6,0.4-0.4c1.7,1.3,2.2,2.1,1.4,2.1    C584.3,365.6,583.5,364.8,582.8,363.9z M584.8,358.9c-1.2-1.6-1.2-1.6,0.4-0.4c1.7,1.3,2.2,2.1,1.4,2.1    C586.3,360.6,585.5,359.8,584.8,358.9z M650.4,355.4l-2.9-3.2l3.3,2.9c1.8,1.6,3.2,3.1,3.2,3.3    C653.9,359.1,653.1,358.4,650.4,355.4z M659,355c0-1.2,0.3-1.4,0.6-0.6c0.3,0.7,0.3,1.6-0.1,1.9S659,356.1,659,355z M573.9,347.6    c0-0.6,0.5-0.8,1-0.4c0.5,0.3,1,0.8,1,1.1s-0.5,0.4-1,0.4S573.9,348.1,573.9,347.6z M576.8,341.9l-2.4-2.8l2.8,2.4    c1.5,1.3,2.8,2.6,2.8,2.8C579.9,345.1,579.1,344.4,576.8,341.9z M631.3,338.4l-1.9-2.2l2.2,1.9c2.1,1.8,2.7,2.6,1.9,2.6    C633.4,340.6,632.4,339.6,631.3,338.4z M546.4,338.6c0.6-1,0.4-1.1-0.8-0.7c-0.9,0.4-1.7,0.2-1.7-0.3c0-1.2,2.7-1.3,3.5,0    c0.3,0.5,0,1.3-0.6,1.7C546,339.7,545.9,339.5,546.4,338.6z M544.5,320.3c0.4-1,0.9-1.5,1.2-1.2s0,1.1-0.7,1.8    C544.1,321.9,543.9,321.8,544.5,320.3z M625,306c0-1.2,0.3-1.4,0.6-0.6c0.3,0.7,0.3,1.6-0.1,1.9S625,307.1,625,306z M626.3,298.4    l-1.9-2.2l2.2,1.9c1.2,1,2.2,2.1,2.2,2.2C628.9,301.1,628.1,300.5,626.3,298.4z M601.7,296.9c0.7-0.3,1.6-0.3,1.9,0.1    c0.3,0.3-0.3,0.6-1.3,0.5C601.2,297.5,600.9,297.3,601.7,296.9z M605.7,297c0.7-0.3,1.8-0.3,2.5,0s0.1,0.5-1.2,0.5    S605,297.2,605.7,297z M218,262.3c-1.3-2.1-1.2-2.1,0.5-0.5c1,0.9,1.6,1.9,1.3,2.2S218.8,263.5,218,262.3z M227.9,259.1    c-1.4-0.8-2-1.4-1.4-1.5s1.9,0.6,3,1.4C231.9,261,231.2,261,227.9,259.1z M213.7,257c0.7-0.3,1.8-0.3,2.5,0    c0.7,0.3,0.1,0.5-1.2,0.5S213,257.2,213.7,257z M600.4,256.6c0.3-0.6,1-0.8,1.6-0.4c1.4,0.9,1.1,1.5-0.6,1.5    C600.5,257.6,600.1,257.2,600.4,256.6z M560.7,252.9c1.2-0.2,3.3-0.2,4.5,0c1.2,0.2,0.2,0.4-2.2,0.4S559.4,253.2,560.7,252.9z     M572.7,252.9c1.2-0.2,3.3-0.2,4.5,0c1.2,0.2,0.2,0.4-2.2,0.4S571.4,253.2,572.7,252.9z M519.2,245.9c1.5-0.2,3.8-0.2,5,0    c1.2,0.2,0,0.4-2.8,0.4C518.7,246.3,517.7,246.1,519.2,245.9z M212.2,242.8c-0.9-0.5-0.6-1.2,1-2.1c1.9-1.2,2.1-1.2,1,0.1    c-0.7,0.8-0.9,1.8-0.6,2.2C214.5,243.8,213.7,243.8,212.2,242.8z M453.7,234.9c0.7-0.3,1.6-0.3,1.9,0.1c0.3,0.3-0.3,0.6-1.3,0.5    C453.2,235.5,452.9,235.3,453.7,234.9z M235.7,230.5c0.7-0.7,1.5-1,1.8-0.7s-0.2,0.9-1.2,1.2C234.8,231.6,234.7,231.5,235.7,230.5    z"/>
		<path fill="#8c8c8c" d="M528.7,725.9c0.7-0.3,1.6-0.3,1.9,0.1c0.3,0.3-0.3,0.6-1.3,0.5C528.2,726.5,527.9,726.3,528.7,725.9z M567.1,708.6    c0-1.4,0.2-1.9,0.5-1.2c0.3,0.7,0.3,1.8,0,2.5S567.1,710,567.1,708.6z M563,680c0-1.2,0.3-1.4,0.6-0.6c0.3,0.7,0.3,1.6-0.1,1.9    C563.2,681.7,563,681.1,563,680z M575.7,675.9c0.7-0.3,1.6-0.3,1.9,0.1c0.3,0.3-0.3,0.6-1.3,0.5    C575.2,676.5,574.9,676.3,575.7,675.9z M556.8,668.9l-2.4-2.8l2.8,2.4c1.5,1.3,2.8,2.6,2.8,2.8    C559.9,672.1,559.1,671.4,556.8,668.9z M467.8,640.9c-1.2-1.6-1.2-1.6,0.4-0.4c1,0.8,1.8,1.5,1.8,1.8    C469.9,643.1,469.1,642.5,467.8,640.9z M587.9,616.7c0-0.5,0.4-1.2,1-1.6c0.6-0.4,0.7,0.1,0.4,0.9    C588.6,617.8,587.9,618.1,587.9,616.7z M585.8,602.9c-1.2-1.6-1.2-1.6,0.4-0.4c1.7,1.3,2.2,2.1,1.4,2.1    C587.3,604.6,586.5,603.8,585.8,602.9z M341,583c0-1.2,0.3-1.4,0.6-0.6c0.3,0.7,0.3,1.6-0.1,1.9C341.2,584.7,341,584.1,341,583z     M82.8,502.9c-1.2-1.6-1.2-1.6,0.4-0.4c1,0.8,1.8,1.5,1.8,1.8C84.9,505.1,84.1,504.5,82.8,502.9z M553.1,489.6    c0-1.4,0.2-1.9,0.5-1.2s0.3,1.8,0,2.5S553.1,491,553.1,489.6z M527.4,459.6c-0.4-0.6-0.4-1.3-0.2-1.5s0.7,0.2,1.1,1.1    C528.9,460.8,528.4,461.2,527.4,459.6z M83.4,454.6c-0.3-0.5-0.1-1,0.4-1s1.1,0.5,1.1,1s-0.2,1-0.4,1S83.8,455.2,83.4,454.6z     M610.9,444.7c0-0.5,0.4-1.2,1-1.6c0.6-0.4,0.7,0.1,0.4,0.9C611.6,445.8,610.9,446.1,610.9,444.7z M616.5,419.7    c-0.3-0.5-0.2-1.2,0.3-1.5s0.8,0.1,0.8,0.9C617.6,420.9,617.3,421,616.5,419.7z M410.5,351.8c-0.3-0.5,0.1-0.8,0.9-0.8    s1.2,0.4,0.9,0.8s-0.7,0.8-0.9,0.8S410.8,352.2,410.5,351.8z M627.3,334.4l-1.9-2.2l2.2,1.9c2.1,1.8,2.7,2.6,1.9,2.6    C629.4,336.6,628.4,335.6,627.3,334.4z M582.7,309.9c0.7-0.3,1.6-0.3,1.9,0.1c0.3,0.3-0.3,0.6-1.3,0.5    C582.2,310.5,581.9,310.3,582.7,309.9z M567.7,253c0.7-0.3,1.8-0.3,2.5,0s0.1,0.5-1.2,0.5S567,253.2,567.7,253z M590.4,252.6    c0.3-0.6,1-0.8,1.6-0.4c1.4,0.9,1.1,1.5-0.6,1.5C590.5,253.6,590.1,253.2,590.4,252.6z M209,250c0-1.2,0.3-1.4,0.6-0.6    c0.3,0.7,0.3,1.6-0.1,1.9C209.2,251.7,209,251.1,209,250z M526.7,246c0.7-0.3,1.8-0.3,2.5,0s0.1,0.5-1.2,0.5S526,246.2,526.7,246z     M370.8,233.9c-1.3-1.6-1.2-1.6,0.6-0.3c1.1,0.8,2.2,1.6,2.4,1.8s-0.1,0.3-0.6,0.3C372.6,235.6,371.5,234.8,370.8,233.9z     M449.7,231.9c0.7-0.3,1.6-0.3,1.9,0.1c0.3,0.3-0.3,0.6-1.3,0.5C449.2,232.5,448.9,232.3,449.7,231.9z M314.2,217.9    c1-0.3,2.3-0.2,3,0c0.7,0.3-0.1,0.5-1.8,0.5S313.2,218.2,314.2,217.9z"/>
		<path fill="#8c8c8c" d="M570.7,733.9c0.7-0.3,1.6-0.3,1.9,0.1c0.3,0.3-0.3,0.6-1.3,0.5C570.2,734.5,569.9,734.3,570.7,733.9z M567.1,704.6    c0-1.4,0.2-1.9,0.5-1.2s0.3,1.8,0,2.5S567.1,706,567.1,704.6z M552,678c0-1.2,0.3-1.4,0.6-0.6c0.3,0.7,0.3,1.6-0.1,1.9    C552.2,679.7,552,679.1,552,678z M432.8,652.9l-2.4-2.8l2.8,2.4c2.6,2.3,3.2,3.1,2.4,3.1C435.4,655.6,434.2,654.4,432.8,652.9z     M435.7,644.9c0.7-0.3,1.6-0.3,1.9,0.1s-0.3,0.6-1.3,0.5C435.2,645.5,434.9,645.3,435.7,644.9z M593.5,644.8    c-0.3-0.5,0.1-0.8,0.9-0.8s1.2,0.4,0.9,0.8s-0.7,0.8-0.9,0.8S593.8,645.2,593.5,644.8z M574.4,634.6c-0.4-0.6-0.4-1.3-0.2-1.5    s0.7,0.2,1.1,1.1C575.9,635.8,575.4,636.2,574.4,634.6z M581,632.3c0.2-0.2,1.3-0.9,2.4-1.8c1.9-1.4,1.9-1.3,0.6,0.3    c-0.8,1-1.8,1.8-2.4,1.8S580.8,632.5,581,632.3z M278.3,542.4l-1.9-2.2l2.2,1.9c2.1,1.8,2.7,2.6,1.9,2.6    C280.4,544.6,279.4,543.6,278.3,542.4z M195.9,523.2c0-0.2,0.8-1,1.8-1.8c1.6-1.2,1.6-1.2,0.4,0.4    C196.7,523.5,195.9,524.1,195.9,523.2z M234.7,521c0.7-0.3,1.8-0.3,2.5,0s0.1,0.5-1.2,0.5S234,521.2,234.7,521z M173,424    c0-1.2,0.3-1.4,0.6-0.6c0.3,0.7,0.3,1.6-0.1,1.9C173.2,425.7,173,425.1,173,424z M656.7,339.5c0.7-0.7,1.5-1,1.8-0.7    c0.3,0.3-0.2,0.9-1.2,1.2C655.8,340.6,655.7,340.5,656.7,339.5z M619.5,320.7c-0.3-0.5-0.2-1.2,0.3-1.5s0.8,0.1,0.8,0.9    C620.6,321.9,620.3,322,619.5,320.7z M568.2,310.9c1.5-0.2,3.8-0.2,5,0c1.2,0.2,0,0.4-2.8,0.4    C567.7,311.3,566.7,311.1,568.2,310.9z M531.7,245.9c1.2-0.2,3.3-0.2,4.5,0c1.2,0.2,0.2,0.4-2.2,0.4S530.4,246.2,531.7,245.9z     M458.5,242c-0.5-1.4-0.4-1.4,0.9-0.4c1.7,1.4,1.9,2,0.6,2C459.5,243.6,458.9,242.9,458.5,242z M224.2,232.9c1-0.3,2.3-0.2,3,0    c0.7,0.3-0.1,0.5-1.8,0.5S223.2,233.2,224.2,232.9z M239.7,231.9c0.7-0.3,1.6-0.3,1.9,0.1c0.3,0.3-0.3,0.6-1.3,0.5    C239.2,232.5,238.9,232.3,239.7,231.9z M268.7,219.9c0.7-0.3,1.6-0.3,1.9,0.1c0.3,0.3-0.3,0.6-1.3,0.5    C268.2,220.5,267.9,220.3,268.7,219.9z M283.7,218.9c0.7-0.3,1.6-0.3,1.9,0.1c0.3,0.3-0.3,0.6-1.3,0.5    C283.2,219.5,282.9,219.3,283.7,218.9z M319.7,217.9c1.2-0.2,3-0.2,4,0s-0.1,0.4-2.3,0.4C319.2,218.4,318.4,218.2,319.7,217.9z     M266.7,208.9c0.7-0.3,1.6-0.3,1.9,0.1c0.3,0.3-0.3,0.6-1.3,0.5C266.2,209.5,265.9,209.3,266.7,208.9z"/>
		<path fill="#8c8c8c" d="M566.7,734c0.7-0.3,1.8-0.3,2.5,0s0.1,0.5-1.2,0.5S566,734.2,566.7,734z M303.9,664.2c0-0.2,0.9-0.6,2-0.9    c1.1-0.3,1.7-0.1,1.4,0.4C306.8,664.6,303.9,665,303.9,664.2z M353,634c0-1.2,0.3-1.4,0.6-0.6c0.3,0.7,0.3,1.6-0.1,1.9    C353.2,635.7,353,635.1,353,634z M581.4,614.6c-0.4-0.6,0.1-0.7,0.9-0.4c1.7,0.7,2,1.4,0.6,1.4    C582.5,615.6,581.8,615.2,581.4,614.6z M563.5,591.9c-0.5-1.4-0.4-1.5,0.6-0.6c0.7,0.7,1,1.5,0.7,1.8    C564.4,593.5,563.9,592.9,563.5,591.9z M559,572c0-1.2,0.3-1.4,0.6-0.6c0.3,0.7,0.3,1.6-0.1,1.9C559.2,573.7,559,573.1,559,572z     M485.8,569.9l-2.4-2.8l2.8,2.4c2.6,2.3,3.2,3.1,2.4,3.1C488.4,572.6,487.2,571.4,485.8,569.9z M374,546c0-1.2,0.3-1.4,0.6-0.6    c0.3,0.7,0.3,1.6-0.1,1.9C374.2,547.7,374,547.1,374,546z M248.7,520c0.7-0.3,1.8-0.3,2.5,0c0.7,0.3,0.1,0.5-1.3,0.5    C248.5,520.5,248,520.2,248.7,520z M158.8,493.9c-1.2-1.6-1.2-1.6,0.4-0.4c1,0.8,1.8,1.5,1.8,1.8    C160.9,496.1,160.1,495.5,158.8,493.9z M101.2,420.9c1-0.3,2.5-0.3,3.5,0s0.2,0.5-1.8,0.5C101,421.4,100.2,421.2,101.2,420.9z     M170,416c0-1.2,0.3-1.4,0.6-0.6c0.3,0.7,0.3,1.6-0.1,1.9C170.2,417.7,170,417.1,170,416z M613,404c0-1.2,0.3-1.4,0.6-0.6    c0.3,0.7,0.3,1.6-0.1,1.9C613.2,405.7,613,405.1,613,404z M587,387c0-1.2,0.3-1.4,0.6-0.6c0.3,0.7,0.3,1.6-0.1,1.9    S587,388.1,587,387z M588.8,354.9c-1.2-1.6-1.2-1.6,0.4-0.4c1.7,1.3,2.2,2.1,1.4,2.1C590.3,356.6,589.5,355.8,588.8,354.9z     M615.4,302.6c-0.4-0.6,0.1-0.7,0.9-0.4c1.7,0.7,2,1.4,0.6,1.4C616.5,303.6,615.8,303.2,615.4,302.6z M676.7,275.9    c0.7-0.3,1.6-0.3,1.9,0.1c0.3,0.3-0.3,0.6-1.3,0.5C676.2,276.5,675.9,276.3,676.7,275.9z M215.9,244.6c0-0.6,0.4-0.8,1-0.4    c0.6,0.3,1,0.8,1,1.1s-0.4,0.4-1,0.4C216.4,245.6,215.9,245.1,215.9,244.6z M452.7,242.9c1.2-0.2,3.3-0.2,4.5,0    c1.2,0.2,0.2,0.4-2.2,0.4S451.4,243.2,452.7,242.9z M384.2,235.9c1-0.3,2.5-0.3,3.5,0s0.2,0.5-1.8,0.5S383.2,236.2,384.2,235.9z     M326.7,234.9c0.7-0.3,1.6-0.3,1.9,0.1c0.3,0.3-0.3,0.6-1.3,0.5C326.2,235.5,325.9,235.3,326.7,234.9z M228.7,232.9    c0.7-0.3,1.6-0.3,1.9,0.1c0.3,0.3-0.3,0.6-1.3,0.5C228.2,233.5,227.9,233.3,228.7,232.9z M366.7,232.9c0.7-0.3,1.6-0.3,1.9,0.1    c0.3,0.3-0.3,0.6-1.3,0.5C366.2,233.5,365.9,233.3,366.7,232.9z M271.7,219.9c0.7-0.3,1.6-0.3,1.9,0.1c0.3,0.3-0.3,0.6-1.3,0.5    C271.2,220.5,270.9,220.3,271.7,219.9z"/>
		<path fill="#8c8c8c" d="M522.7,730.9c0.7-0.3,1.6-0.3,1.9,0.1c0.3,0.3-0.3,0.6-1.3,0.5C522.2,731.5,521.9,731.3,522.7,730.9z M605.7,679.9    c0.7-0.3,1.6-0.3,1.9,0.1c0.3,0.3-0.3,0.6-1.3,0.5C605.2,680.5,604.9,680.3,605.7,679.9z M582.7,676c0.7-0.3,1.8-0.3,2.5,0    s0.1,0.5-1.2,0.5S582,676.2,582.7,676z M590.4,669.6c1-1.1,2-2,2.3-2s-0.3,0.9-1.3,2s-2,2-2.3,2S589.4,670.7,590.4,669.6z     M458.7,663.9c0.7-0.3,1.6-0.3,1.9,0.1s-0.3,0.6-1.3,0.5C458.2,664.5,457.9,664.3,458.7,663.9z M582,617.9c0.4-2-0.2-2.7-1.1-1.3    c-0.6,0.9-1,1-1,0.3c0-1.9,1.7-2.4,2.9-0.9c0.8,1,0.8,1.6,0.1,2.1C582.4,618.5,581.9,618.4,582,617.9z M502,601    c0-1.2,0.3-1.4,0.6-0.6c0.3,0.7,0.3,1.6-0.1,1.9C502.2,602.7,502,602.1,502,601z M577.9,595.1c-0.7-0.8-1.7-1.2-2.3-0.8    c-0.6,0.4-0.7,0.2-0.3-0.6c0.6-0.9,1.2-0.8,2.7,0.5c1,0.9,1.9,1.9,1.9,2.1C579.9,597,579.1,596.6,577.9,595.1z M342,594    c0-1.2,0.3-1.4,0.6-0.6c0.3,0.7,0.3,1.6-0.1,1.9C342.2,595.7,342,595.1,342,594z M559.2,567.6c0-1.9,0.2-2.7,0.5-1.8    s0.3,2.5,0,3.5S559.2,569.5,559.2,567.6z M365.9,554.6c0-0.6,0.5-0.8,1-0.4s1,0.8,1,1.1s-0.5,0.4-1,0.4S365.9,555.1,365.9,554.6z     M626.9,459.6c0-0.6,0.5-1,1.1-1s0.8,0.5,0.4,1c-0.3,0.5-0.8,1-1.1,1S626.9,460.2,626.9,459.6z M74.7,451.9    c0.7-0.3,1.6-0.3,1.9,0.1s-0.3,0.6-1.3,0.5C74.2,452.5,73.9,452.3,74.7,451.9z M54.7,420c0.7-0.3,1.8-0.3,2.5,0    c0.7,0.3,0.1,0.5-1.2,0.5S54,420.2,54.7,420z M156.7,399.5c0.7-0.7,1.5-1,1.8-0.7s-0.2,0.9-1.2,1.2    C155.8,400.6,155.7,400.5,156.7,399.5z M587,384c0-1.2,0.3-1.4,0.6-0.6c0.3,0.7,0.3,1.6-0.1,1.9S587,385.1,587,384z M592.3,358.4    l-1.9-2.3l2.2,1.9c2.1,1.8,2.7,2.6,1.9,2.6C594.4,360.6,593.4,359.6,592.3,358.4z M555.7,340.5c0.7-0.7,1.5-1,1.8-0.7    c0.3,0.3-0.2,0.9-1.2,1.2C554.8,341.6,554.7,341.5,555.7,340.5z M639,314c0-1.2,0.3-1.4,0.6-0.6c0.3,0.7,0.3,1.6-0.1,1.9    S639,315.1,639,314z M591.7,312.9c0.7-0.3,1.6-0.3,1.9,0.1c0.3,0.3-0.3,0.6-1.3,0.5C591.2,313.5,590.9,313.3,591.7,312.9z     M596.7,311.9c0.7-0.3,1.6-0.3,1.9,0.1c0.3,0.3-0.3,0.6-1.3,0.5C596.2,312.5,595.9,312.3,596.7,311.9z M679.7,276    c0.7-0.3,1.8-0.3,2.5,0c0.7,0.3,0.1,0.5-1.3,0.5C679.5,276.5,679,276.2,679.7,276z M594.5,251.8c-0.3-0.5,0.1-0.8,0.9-0.8    s1.2,0.4,0.9,0.8s-0.7,0.8-0.9,0.8S594.8,252.2,594.5,251.8z M214.9,240.1c0-0.9,0.5-1.3,1-0.9c0.6,0.3,0.8,1,0.4,1.6    C215.5,242.1,214.9,241.8,214.9,240.1z M355.6,232.9c1.8-0.2,4.9-0.2,7,0c2.1,0.2,0.6,0.4-3.2,0.4    C355.6,233.3,353.9,233.1,355.6,232.9L355.6,232.9z"/>
		<path fill="#8c8c8c" d="M560.9,732.6c0-0.5,0.5-1,1.1-1s0.8,0.5,0.4,1s-0.8,1-1.1,1S560.9,733.2,560.9,732.6z M575.4,732.6c-0.3-0.5-0.1-1,0.4-1    s1.1,0.5,1.1,1s-0.2,1-0.4,1S575.8,733.2,575.4,732.6z M482.9,720.6c0-0.6,0.5-0.8,1-0.4s1,0.8,1,1.1s-0.5,0.4-1,0.4    S482.9,721.1,482.9,720.6z M471.9,708.1c-2.4-2.5-4.2-4.5-3.9-4.5s2.5,2,4.9,4.5c2.4,2.5,4.2,4.5,3.9,4.5S474.4,710.6,471.9,708.1    z M562.1,704.1c0-1.7,0.2-2.2,0.5-1.2s0.2,2.3,0,3C562.3,706.6,562.1,705.8,562.1,704.1z M614.7,695.9c0.7-0.3,1.6-0.3,1.9,0.1    c0.3,0.3-0.3,0.6-1.3,0.5C614.2,696.5,613.9,696.3,614.7,695.9z M510.1,688.6c0-1.4,0.2-1.9,0.5-1.2s0.3,1.8,0,2.5    S510.1,690,510.1,688.6z M583.1,683c-0.7-0.8-0.8-1.4-0.3-1.4c1,0,2.5,1.9,1.9,2.5C584.6,684.3,583.8,683.8,583.1,683z     M586.7,675.9c0.7-0.3,1.6-0.3,1.9,0.1c0.3,0.3-0.3,0.6-1.3,0.5C586.2,676.5,585.9,676.3,586.7,675.9z M504,673    c0-1.2,0.3-1.4,0.6-0.6c0.3,0.7,0.3,1.6-0.1,1.9C504.2,674.7,504,674.1,504,673z M555.9,673.2c0-0.2,0.9-0.6,2-0.9    s1.7-0.1,1.4,0.4C558.8,673.6,555.9,674,555.9,673.2z M554,665c0-1.2,0.3-1.4,0.6-0.6c0.3,0.7,0.3,1.6-0.1,1.9    C554.2,666.7,554,666.1,554,665z M473.1,655.1c0-1.7,0.2-2.2,0.5-1.2s0.2,2.3,0,3C473.3,657.6,473.1,656.8,473.1,655.1z     M586.1,634.6c0-1.4,0.2-1.9,0.5-1.2s0.3,1.8,0,2.5S586.1,636,586.1,634.6z M479.1,620.1c0-1.7,0.2-2.2,0.5-1.2s0.2,2.3,0,3    C479.3,622.6,479.1,621.8,479.1,620.1z M448,616c0-1.2,0.3-1.4,0.6-0.6c0.3,0.7,0.3,1.6-0.1,1.9C448.2,617.7,448,617.1,448,616z     M486.3,616.2c0-0.8,0.4-1.2,0.8-0.9c0.5,0.3,0.6,0.9,0.3,1.5C486.6,618,486.3,617.9,486.3,616.2z M471.5,611.7    c-0.3-0.5-0.2-1.2,0.3-1.5s0.8,0.1,0.8,0.9C472.6,612.9,472.3,613,471.5,611.7z M583.5,608.9c-0.5-1.4-0.4-1.5,0.6-0.6    c0.7,0.7,1,1.5,0.7,1.8C584.4,610.5,583.9,609.9,583.5,608.9z M479.8,562.9c-1.2-1.6-1.2-1.6,0.4-0.4c1,0.8,1.8,1.5,1.8,1.8    C481.9,565.1,481.1,564.5,479.8,562.9z M363.9,558.2c0-0.2,0.8-1,1.8-1.8c1.6-1.2,1.6-1.2,0.4,0.4    C364.7,558.5,363.9,559.1,363.9,558.2z M516.9,538.1c0-0.8,0.4-1.5,1-1.5c0.5,0,0.7,0.7,0.4,1.5s-0.8,1.5-1,1.5    C517.1,539.6,516.9,538.9,516.9,538.1z M396.8,536.9c-1.2-1.6-1.2-1.6,0.4-0.4c1.7,1.3,2.2,2.1,1.4,2.1    C398.3,538.6,397.5,537.8,396.8,536.9z M239.7,520c0.7-0.3,1.8-0.3,2.5,0c0.7,0.3,0.1,0.5-1.3,0.5    C239.5,520.5,239,520.2,239.7,520z M545.9,512.7c0-0.5,0.4-1.2,1-1.6c0.6-0.4,0.7,0.1,0.4,0.9    C546.6,513.8,545.9,514.1,545.9,512.7z M598.2,476.6c0-2.5,0.2-3.5,0.4-2.3s0.2,3.3,0,4.5S598.2,479.1,598.2,476.6z M585.8,471.9    c-1.2-1.6-1.2-1.6,0.4-0.4c1.7,1.3,2.2,2.1,1.4,2.1C587.3,473.6,586.5,472.8,585.8,471.9z M604,472c0-1.2,0.3-1.4,0.6-0.6    c0.3,0.7,0.3,1.6-0.1,1.9C604.2,473.7,604,473.1,604,472z M592.4,460.6c1-1.1,2-2,2.3-2s-0.3,0.9-1.3,2s-2,2-2.3,2    S591.4,461.7,592.4,460.6z M612.9,446.6c-0.9-0.6-1-1-0.3-1c0.7,0,1.5,0.4,1.8,1C615.2,447.9,614.8,447.9,612.9,446.6z     M547.1,435.6c0-1.4,0.2-1.9,0.5-1.2s0.3,1.8,0,2.5S547.1,437,547.1,435.6z M529.4,433.6c1-1.1,2-2,2.3-2s-0.3,0.9-1.3,2    c-1,1.1-2,2-2.3,2S528.4,434.7,529.4,433.6z M77.7,414.9c0.7-0.3,1.6-0.3,1.9,0.1c0.3,0.3-0.3,0.6-1.3,0.5    C77.2,415.5,76.9,415.3,77.7,414.9z M610.5,410.3c0.4-1,0.9-1.5,1.2-1.2s0,1.1-0.7,1.8C610.1,411.9,609.9,411.8,610.5,410.3z     M578.9,409.2c0-0.2,0.8-1,1.8-1.8c1.6-1.2,1.6-1.2,0.4,0.4C579.7,409.5,578.9,410.1,578.9,409.2z M628.9,403.2    c0-0.2,0.8-1,1.8-1.8c1.6-1.2,1.6-1.2,0.4,0.4C629.7,403.5,628.9,404.1,628.9,403.2z M290.9,387.6c0-0.5,0.5-1,1.1-1    s0.8,0.5,0.4,1c-0.3,0.5-0.8,1-1.1,1S290.9,388.2,290.9,387.6z M587,381c0-1.2,0.3-1.4,0.6-0.6c0.3,0.7,0.3,1.6-0.1,1.9    S587,382.1,587,381z M595.8,361.9c-1.2-1.6-1.2-1.6,0.4-0.4c1,0.8,1.8,1.5,1.8,1.8C597.9,364.1,597.1,363.5,595.8,361.9z     M655.9,348.7c0-0.5,0.4-1.2,1-1.6c0.6-0.4,0.7,0.1,0.4,0.9C656.6,349.8,655.9,350.1,655.9,348.7z M418.7,342.5    c0.4-1.4,0.8-1.8,1.1-1.1c0.2,0.7,0,1.8-0.6,2.4C418.3,344.6,418.2,344.2,418.7,342.5z M414.1,339.1c0-1.6,0.2-2.2,0.5-1.2    c0.3,1,0.2,2.3,0,3C414.3,341.6,414.1,340.8,414.1,339.1z M588.7,312.9c0.7-0.3,1.6-0.3,1.9,0.1c0.3,0.3-0.3,0.6-1.3,0.5    C588.2,313.5,587.9,313.3,588.7,312.9z M217.8,260.9c-1.2-1.6-1.2-1.6,0.4-0.4c1.7,1.3,2.2,2.1,1.4,2.1    C219.3,262.6,218.5,261.8,217.8,260.9z M606.7,251.9c0.7-0.3,1.6-0.3,1.9,0.1c0.3,0.3-0.3,0.6-1.3,0.5    C606.2,252.5,605.9,252.3,606.7,251.9z M433.3,243.2c0-0.8,0.4-1.2,0.8-0.9c0.5,0.3,0.6,0.9,0.3,1.5    C433.6,245,433.3,244.9,433.3,243.2z M207.5,238.4c0.3-0.5,0.9-0.6,1.5-0.3c1.3,0.8,1.2,1.1-0.5,1.1    C207.7,239.3,207.2,238.9,207.5,238.4z M456.7,239c0.7-0.3,1.8-0.3,2.5,0s0.1,0.5-1.2,0.5S456,239.2,456.7,239z M292.7,214    c0.7-0.3,1.8-0.3,2.5,0s0.1,0.5-1.2,0.5S292,214.2,292.7,214z"/>
		<path fill="#8c8c8c" d="M582.1,741.1c1.6-3.5,11.2-9.1,17.1-9.9c2.6-0.4,4.8-0.4,4.8-0.1c0,0.3-3,2.1-6.8,4.1s-8.3,4.7-10.1,6    C582.4,744.5,580.6,744.5,582.1,741.1z M542.2,734c-0.9-0.4-1-1-0.2-2.5c0.8-1.6,1.4-1.7,2.5-0.8c1.1,0.9,2.1,0.9,4.4-0.1    c2.4-1,3.9-1,7.6,0c3.1,0.9,4.1,1.5,3.2,2.1c-2.1,1.4-5,1-7.1-0.9c-1.9-1.7-1.9-1.7-1.3,0.5c0.7,2.1,0.4,2.2-3.6,2.2    C545.4,734.5,542.9,734.2,542.2,734z M528.9,732.1c-1.9-0.7-5.1-1.3-7-1.4s-6.2-0.8-9.5-1.8c-3.3-0.9-7.6-1.8-9.7-1.9    c-4.6-0.2-12.8-2.5-12.8-3.5c0-0.4-1.3-1.2-2.9-1.8c-2.7-1-2.9-1.2-1.8-3.6c1.1-2.3,1.6-2.5,5.7-2.2c5.4,0.5,9.6,2,10.2,3.6    c0.2,0.7,2.6,1.4,5.4,1.7c3.8,0.4,5.3,0.1,6.3-1.1c1-1.2,1.7-1.4,2.7-0.5c0.8,0.6,4.5,1.4,8.3,1.6c3.8,0.3,6.7,0.9,6.4,1.4    s-1.6,0.9-3,0.9c-1.5,0-2.4,0.6-2.4,1.5c0,1.1,1.1,1.5,3.9,1.5c2.5,0,4.1,0.5,4.5,1.5c0.3,0.8,1.7,1.5,3,1.5s2.8,0.5,3.1,1    c0.9,1.5-2.3,2.4-3.9,1c-1.1-0.9-1.6-0.8-2.2,0.2C532.6,733.1,531.9,733.1,528.9,732.1L528.9,732.1z M563.4,732.1    c1.4-1.1,3.2-1.3,6.5-0.9c7.6,1.1,7,2.4-1,2.4C562,733.6,561.6,733.4,563.4,732.1z M577.8,731.3c1-1.2,3.1-1.6,7.9-1.6    c7,0,7.9,1.1,1.2,1.6c-2.2,0.2-5.5,0.6-7.3,1C576.8,732.8,576.6,732.7,577.8,731.3z M470.4,705.3c-4.8-5.1-9.3-10.6-10-12.2    c-0.7-1.7-2.1-4.9-3-7.2s-3-5.7-4.6-7.4c-1.6-1.7-3.3-4.8-4-6.8c-0.6-2-2.4-5-4-6.6c-9.7-10.3-17-18.8-17-20c0-2.2,1.5-2.6,3.6-1    c1,0.8,3.4,1.5,5.1,1.5c3.1,0,7.2,2.9,7.2,5c0,0.5,2.4,2.8,5.3,5c2.9,2.2,5.9,5.2,6.7,6.5c0.8,1.6,2.2,2.5,3.7,2.5    c1.3,0,3.2,0.9,4.3,2s2.4,2,2.8,2c0.4,0,2.5,1.6,4.6,3.6c3.4,3.2,3.7,4,3.5,7.8c-0.3,3.6,0,4.2,1.8,4.5c1.3,0.2,2.5,1.5,3.3,3.7    c1.4,4,4.7,6.3,6.4,4.5c0.8-0.8,0.6-1.1-0.6-1.1c-2.3,0-2.2-1.7,0.2-3c1.6-0.9,2.1-0.6,3,1.7c0.6,1.5,1.9,3.8,2.8,5.2    c1.7,2.4,1.7,2.4-0.5,1.8c-2.8-0.7-4.2,1.6-4.2,7c0,2.2-0.3,5.3-0.6,6.9c-0.5,2.5-1.1,3-3.9,3.1    C479.4,714.5,478.1,713.6,470.4,705.3z M562.3,707.6c0.6-5.7,0.5-6.2-1.4-6.7c-2.2-0.6-2.9-5-1.1-6.9c0.9-0.9,2.2-5.3,3.9-13.5    c1-4.7,2.9-8,4.6-8c0.8,0,1.6-0.5,1.8-1.1c0.3-0.8,1.7-0.8,5.6,0c8.6,1.8,12.2,1.5,15.4-1.6c3.1-3,3.7-1.6,1.1,2.8l-1.7,2.9h-11.7    c-9.7,0-11.8,0.3-12.3,1.6c-1,2.7-0.6,4.8,1.4,7.4c1.9,2.4,2,2.4,4.7,0.9c3.6-2.1,11.3-3.4,11.3-2c0,0.6-0.6,1.1-1.2,1.1    c-0.7,0-2.8,1.4-4.7,3l-3.4,2.9l1.7,3.6c0.9,2,1.7,4.2,1.7,5.1c0,0.8,1.1,2.6,2.5,3.8c2.2,2,2.4,2.8,1.7,6.1c-0.4,2.1-1.3,4-2,4.2    c-1.8,0.6-2.7-2.7-1.4-4.9c1.8-2.8,1.4-3.3-1.3-1.5c-3.2,2.1-3.5,2.1-3.5-0.8c0-1.3-0.7-2.9-1.5-3.6s-1.5-2.5-1.5-4.1    c0-1.9-0.5-2.9-1.5-2.9c-1.6,0-2.4,3.4-2.8,12c-0.2,5-0.5,5.5-2.6,5.8C561.7,713.8,561.7,713.7,562.3,707.6z M534.7,702.5    c-0.5-3.1-6.2-4.8-10.8-3.2c-2.9,1-3.6,0.9-3.8-0.2c-0.2-0.8-1.5-1.4-3.2-1.4c-5.2,0-6-0.8-6-6.2c0-4.1-0.3-5.1-1.9-5.5    c-2.5-0.6-4.1-5.2-4.1-11.8c0-5.9,2-9.6,4.1-7.9c0.7,0.6,2.5,1.4,4,1.7c2.7,0.7,3.9-0.6,3.9-4.3c0-1.7,3.7-4.1,6.4-4.1    c1.6,0,7.6-6.2,7.6-7.9c0-0.7,2.1-2.2,4.6-3.3c2.5-1.1,4.4-2.3,4.1-2.5s1-2.5,2.8-4.9c1.8-2.4,3.6-5.3,4-6.4    c0.9-2.9,1.8-2.5,3.9,1.9c1.1,2.4,3.3,4.7,5.8,6.1c4.6,2.6,4.9,3.6,1.2,4.5c-2.4,0.6-2.6,0.8-1.1,1.9c1.5,1.1,1.4,1.4-1,2.8    c-2.2,1.3-2.6,2.2-2.4,5c0.5,6.7,1.5,9.8,3.9,12c3.1,2.9,3,3.5-0.3,4.4c-3.4,0.9-4.2,2.1-4.2,6.6c0,2.6-0.8,4.3-2.9,6.3    c-2.5,2.4-3,3.9-3.6,9.7c-0.4,3.8-1.1,6.9-1.6,6.9c-0.5,0-0.9-0.5-0.9-1s-1.8-0.1-3.9,1l-3.9,2    C535.1,704.6,534.7,702.5,534.7,702.5z M608.7,699.7c-0.6-2.3,1.5-3.1,8.4-3.1c3.2,0,5.1,0.5,6.2,1.8c2.2,2.4,2.1,3.6-0.1,2.7    c-4.3-1.8-9.2-2.2-10.4-0.8C611.2,702.2,609.2,701.9,608.7,699.7z M605.6,683c-1.2-1.2-0.7-2.3,0.9-2.3c1.3,0,1.4-0.9,0.9-4.8    c-0.4-3.3-0.2-5.9,0.9-8.3l1.5-3.5l0.1,2.8c0.1,2.3,0.4,2.7,2.1,2.2c2.2-0.7,2.8,1.3,0.8,3.3c-0.9,0.9-0.8,1.6,0.2,2.9    c1.3,1.5,1.2,1.7-0.5,1c-2.5-0.9-3.8,1.1-2.4,3.7c0.8,1.4,0.7,2.2-0.3,2.8C608.1,683.8,606.5,683.9,605.6,683z M473.9,670    c-1.4-1.4-4.4-3.8-6.6-5.4c-5.5-3.8-11.3-15.2-11.4-22.2c0-1.5-0.8-3.2-1.8-3.7c-1-0.6-1.4-1-0.9-1s-0.2-1.5-1.5-3.3    c-3.2-4.6-4.5-5.8-6.3-5.8c-0.9,0-1.6-0.9-1.7-2.2c-0.4-11-0.3-15.7,0.3-15.7c0.4,0,0.8-0.9,0.8-2s-0.6-2-1.3-2    c-0.9,0-1.3-1.2-1.2-3.5c0-1.9,0.4-3.5,0.9-3.5c1,0-0.2-4-1.8-6c-0.7-0.8-1.8-3.8-2.5-6.5c-1.4-5.5-5.6-15.5-6.4-15.5    c-0.3,0-2.2,1.9-4.4,4.1c-3.4,3.7-4.2,4-7,3.4c-3.2-0.7-3.2-0.7-3.2-6.9c0-6.4-2.9-13.5-5-12.2c-0.6,0.4-1-0.7-1-2.5    c0-2.3-0.5-3.3-1.9-3.7c-2.5-0.7-8.8-8.7-9.6-12.3c-0.8-3.4-4.5-7.3-4.5-4.7c0,2.9-4.6,4.9-12.1,5.2c-7.8,0.3-9.9,1.4-9.9,5.4    c0,3.1-4,7.4-6.1,6.6c-0.9-0.3-1.9,0.6-2.7,2.4c-0.7,1.6-4,5.7-7.2,9.1c-3.3,3.4-5.9,6.6-5.9,7s-1.2,1.7-2.8,2.6    c-1.5,1-3.1,2.3-3.5,3c-0.4,0.7-1.6,1.3-2.5,1.3c-1.5,0-1.7,1.7-1.8,16.3c-0.1,15.3-0.2,16.5-2.2,18.5c-2.4,2.4-2.8,4.7-0.9,5.5    c0.7,0.3,0,0.5-1.5,0.6c-1.9,0.1-3.1,0.9-4.2,3c-0.8,1.6-2.2,3.1-3,3.5c-2.1,0.8-6.3-4.5-7.7-9.6c-0.6-2.3-3.1-8.1-5.5-12.8    c-2.4-4.8-4.4-9-4.4-9.4s-2-5.1-4.4-10.4c-4.8-10.4-9.6-26.8-9.6-32.4c0-1.9-0.6-5.2-1.4-7.4s-1.2-4.4-0.9-5.1s-0.1-1.2-0.6-1.2    s-1.1,1.3-1.1,2.9c0,2.9-3.8,7.1-6.5,7.1c-1.5,0-11.5-8.8-11.5-10.1c0-0.5,1.1-0.9,2.4-0.9c1.3,0,2.9-0.6,3.6-1.4    c1-1.2,0.7-1.4-1.8-1.3c-1.7,0-4.1-0.7-5.3-1.6c-1.3-0.9-3.7-2.6-5.4-3.7s-3.6-3.1-4.2-4.5c-0.6-1.4-1.6-2.5-2.2-2.5    c-0.6,0-1-0.7-1-1.5s-0.6-1.5-1.2-1.6c-2.3-0.2-15.2,0.2-20.8,0.7c-5.3,0.5-17.5-0.9-25.3-2.8c-3.1-0.8-4.1-1.6-5.4-4.6    c-1.9-4.6-3.4-5.6-5.1-3.4c-1,1.3-2.8,1.7-7.8,1.7c-3.7,0-6.8-0.5-7.2-1.1c-0.4-0.6-3.3-2.7-6.4-4.7c-4.1-2.6-6.7-5.3-9.3-9.5    c-5-8.1-7.6-8.5-15.5-2.4c-0.3,0.2,0,0.7,0.6,1.1c0.6,0.4,1.8,2.4,2.7,4.5s3.6,5.6,6.1,7.9c2.5,2.3,4.5,4.7,4.5,5.4    s0.7,1.5,1.5,1.8c0.8,0.3,1.5,1.2,1.5,1.9c0,0.9-0.3,0.9-0.9-0.2c-1.4-2.2-2.4-0.5-1.1,1.9c1.5,2.8,2.7,2.6,3.5-0.5    c1.1-4.4,3.1-2.1,3.4,3.9c0.3,5.2,0.5,5.7,2.9,6.3c1.5,0.4,2.8,0.2,3-0.3s1.9-0.8,3.9-0.5c3.3,0.4,4.1-0.1,9.9-6.1l6.3-6.5l0.5,5    c0.6,6.1,3.2,9.2,9.4,10.9c3.1,0.9,5,2.1,6.1,4.1c0.9,1.6,2.3,2.9,3,2.9c2.1,0,1.5,3.2-1.3,7.3c-1.4,2.1-2.4,4.5-2.2,5.5    c0.2,1.3-0.3,1.7-2,1.4c-2-0.3-2.2,0.1-2.2,3.7c0,3.4-0.4,4.2-2.8,5.3c-1.5,0.7-3.2,2.3-3.7,3.5c-0.5,1.2-2,2.5-3.3,2.8    c-1.3,0.3-2.7,1.7-3.3,3.1c-0.7,1.8-1.7,2.5-3.5,2.5c-4.7,0-12.2,3.9-13.3,6.9c-0.8,2.2-2.4,3.3-7.8,5.5c-3.8,1.5-7.5,3.3-8.4,4.1    c-1.6,1.4-7.9,3.9-14.5,5.7c-2.2,0.6-5.2,2-6.6,3c-3,2.2-8.8,2.1-10-0.2c-0.4-0.8-1.6-4.6-2.5-8.5c-1.4-5.5-2.5-7.7-5.6-10.7    c-4.3-4.2-4.4-4.4-2.3-5.2c0.8-0.3,2.4,0.4,3.5,1.6c1.1,1.2,2,1.6,2,0.9c0-1.6-2.6-5.6-6.7-10.6c-1.8-2.2-3.3-4.7-3.3-5.5    c0-0.9-2.5-4-5.5-7c-3-3-5.5-6.2-5.5-7.2c0-0.9-0.4-2-1-2.3c-0.6-0.3-1-1.8-1-3.3c0-4.1-3.2-11-5.8-12.3c-1.3-0.7-2.6-2.4-2.9-3.8    c-0.8-3.4-11.2-19.1-13.1-19.8c-0.8-0.3-2.3-0.1-3.3,0.6c-1.5,1-2.2,0.6-4.3-2.1c-4-5.4-6.6-11-6.6-14.4c0-3.3,1.3-4.4,5.5-4.4    c3.2,0,4.1-1.5,7.1-11.1c1.7-5.5,2.7-11,2.8-16l0.2-7.6l-4.3,0.2c-2.3,0.1-5.1,0.9-6.1,1.8c-2.5,2.2-7.8,2.1-10.9-0.4    c-3-2.3-7.3-2.7-7.3-0.6c0,2.5-3.6,2.8-7.6,0.6c-2.3-1.2-4.2-1.7-4.7-1.1c-1.1,1.1-3.9,0.2-3.1-1c0.3-0.5,0.2-0.9-0.3-0.9    s-1.5-1.5-2.2-3.2c-0.8-1.8-2.1-3.8-3-4.5c-1.1-0.9-1.2-1.4-0.4-2c1.5-1,0.5-6.3-1.2-6.3c-1.3,0-2.7-3.5-1.7-4.4    c0.3-0.3,2.4-0.6,4.6-0.7c6.8-0.2,10.1-1.3,9.9-3.2c-0.1-1.4,0.8-1.7,5.3-1.7c3.9,0,6.2-0.6,8.2-2.1c3.9-2.9,13.9-4.2,17-2.3    c1.3,0.8,2.6,1.2,2.9,0.9c0.3-0.3,1.3,0,2.2,0.8c3.7,3.2,15.4,4.5,22.3,2.6c7.4-2.1,6.8-7.1-1.7-12.5c-5.4-3.5-6.9-5.5-4.2-5.5    c1.5,0,9.6,3.2,13.8,5.6c1.5,0.8,4.7,1.4,7.1,1.4c3.7,0,5.3,0.6,9.3,3.9c6.1,5.1,19.7,12,23.8,12.2c2.4,0.1,2.6,0.2,0.9,0.6    c-1.7,0.3-2.2,1.1-2.2,3.4c0,1.6-0.5,3.8-1.2,4.9c-1.6,2.5,1.3,9,4,9c1,0,3.3,1.1,5.2,2.5c3.4,2.5,7,3,13,1.9c4.1-0.8,4.5-2,3-8.9    c-0.9-4.1-1.7-5.8-3.1-6.2c-1-0.3-1.9-1.2-1.9-2s-0.7-2.1-1.5-3s-1.5-2.5-1.5-3.7c0-1.2-0.7-3.5-1.5-5s-1.5-4-1.5-5.3    c0-1.9-0.9-2.8-4-4.1c-2.2-0.9-4-2.2-4-2.7c0-0.6-1.4-2.5-3.1-4.2s-2.6-3.2-2-3.2s1.6-1.2,2.1-2.6c0.9-2.3,1.5-2.5,5.2-2.3    c2.9,0.2,4.2-0.1,4.1-0.9c-0.1-0.7-0.2-2.3-0.2-3.7c-0.2-3.3-2.6-5.5-5.2-4.9c-2.7,0.7-8-4.2-8-7.5c0-1.3-1.3-4.3-3-6.6    c-1.6-2.3-3.3-5.6-3.6-7.3c-0.5-2.7-0.3-3.2,1.7-3.7c1.3-0.3,3.7-0.6,5.3-0.6c1.6,0,4.4-0.6,6.2-1.2c2.7-1,5.1-0.9,13.1,0.5    c5.4,1,11.9,2.4,14.6,3.3c3.7,1.2,5.2,1.2,6.2,0.4c0.8-0.6,1.8-0.9,2.4-0.5c1.2,0.8,5.1-1.1,5.1-2.5c0-0.5-1.6-1.9-3.5-3.1    c-1.9-1.1-3.5-2.7-3.5-3.4c0-0.8-1.2-2.1-2.6-3.1c-2.3-1.5-2.5-2.2-2-5.5c1.2-7.3-3.1-10-8.5-5.4c-3.6,3-5,2.5-8.9-2.8    c-2.8-3.8-2.9-4.2-1.3-5.4c0.9-0.7,2.4-1.3,3.3-1.3c4.3,0,5.4-6,1.8-10.5c-1.6-2-2.5-5.4-3.4-12.6c-0.9-7-2.5-12.8-5.3-20    c-2.2-5.6-4.1-10.3-4.1-10.5s2.8-1.7,6.3-3.4c3.5-1.6,8.1-4.5,10.2-6.3l3.9-3.4l-2.2-2.8c-1.2-1.5-2-3-1.9-3.2    c0.2-0.2,1.9,0.3,3.8,1c6.4,2.6,7.9,2.9,7.9,1.4c0-1.2-1.5-2.2-9-5.7c-0.8-0.4-1.7-1.5-1.9-2.5c-0.2-1-1.3-2.6-2.4-3.4    c-2-1.6-2-1.6,0.6-3.3c1.8-1.2,2.6-2.6,2.6-4.5c0-3.9,2-6.3,4.7-5.5c1.2,0.3,2,1,1.7,1.4c-0.3,0.5,1.4,1.2,3.8,1.7    c3.9,0.8,4.3,1.1,4.6,4.1c0.2,1.9,1.1,3.6,2.3,4.3c1.1,0.6,3.1,3.2,4.4,5.9c1.4,2.7,3.8,5.8,5.5,7c3.7,2.6,3.7,3,0.5,8l-2.5,4    l2.5,0.6c1.6,0.4,3,0.1,4.1-1c0.9-0.9,2-1.6,2.5-1.6c0.5,0,1.2-1.4,1.5-3.1c0.5-2.2,0.2-3.6-1.1-5c-1.7-1.8-1.6-2,0.7-2.9    c2.1-0.8,1.9-1-1.7-1c-4.7-0.1-7.4-2.4-7.4-6.2c0-1.8-1-3-3.6-4.4l-3.6-1.9l2.9-2.3c2.8-2.3,2.8-2.3,0.9-3.9    c-1.2-0.9-1.4-1.4-0.5-1.1c0.8,0.2,2.5,2,3.8,3.9c2.4,3.6,5.4,5.3,8.1,4.6c1-0.3,0.3-0.9-1.9-1.7c-3.3-1.2-3.3-1.3-1.2-2.1    c1.2-0.5,2-1.3,1.6-1.8c-0.9-1.5,2.3-1.2,11,1c4.3,1.1,8.4,2,9.2,2c2.6,0,0.2-1.9-3.6-3c-2.1-0.6-5.1-2-6.7-3.3l-2.9-2.2l6.5-0.8    c3.6-0.4,8.2-0.7,10.2-0.7c4.8,0.1,4.8-1,0-3.3c-2.1-1-2.8-1.6-1.5-1.4c1.2,0.2,2.3,0,2.5-0.5c0.2-0.5,3.2-1.6,6.8-2.4    c3.6-0.8,9.1-2.2,12.3-3.1c3.2-0.8,8.6-1.4,12-1.3s8.1-0.2,10.5-0.6c3.6-0.6,4.2-1.1,3.7-2.6c-0.9-2.8,2.9-3.7,10-2.7    c3.3,0.5,7.2,1,8.7,1c1.5,0.1,2.8,0.7,3,1.6c0.2,1.2,2.4,1.5,10.8,1.7c5.8,0.1,11.4,0.4,12.6,0.7c3.4,0.7,9.6,4.8,8.9,5.9    c-0.5,0.9-3.8,2.8-12.6,7.5c-4.2,2.2-0.5,3.5,4.6,1.5c1.4-0.5,2.3-1.4,2-2c-0.3-0.6,0-1,0.9-1c0.8,0,2.8-0.8,4.4-1.7    c2.8-1.6,3-1.6,6.4,1c3.3,2.5,4.1,2.7,14.2,2.7c6.2,0,10.5,0.4,10.2,0.9c-0.7,1.1,18.2,2.7,19.2,1.6c0.4-0.4,0.1-1-0.5-1.2    c-0.7-0.2-1.2-0.9-1.2-1.5c0-0.7,1.8-0.8,5.2-0.3c2.9,0.4,6.4,0.7,7.8,0.7c5-0.1,10.6,2.1,17.5,6.8c6.3,4.3,12.1,7.1,14.8,7.1    c0.5,0,0.8-1.1,0.5-2.3c-0.4-2.2-0.3-2.3,3.6-1.6c2.2,0.4,8.8,0.4,14.6,0.1l10.5-0.6l-3.5-1.7c-2.8-1.4-3.1-1.7-1.3-1.8    c1.2,0,2.3-0.6,2.6-1.2c0.3-0.9,3.1-0.9,12.3,0.1c12.1,1.3,15.9,1.6,22.6,1.9c2,0.1,4.4,0.9,5.2,1.7c2.4,2.4,9.9,3.6,27.6,4.4    c16.6,0.7,18.3,1.1,26,5.6c3,1.7,30.5,2.2,31.5,0.5c0.3-0.5,1.3-1,2.1-1s1.2,0.5,0.9,1s0.1,1,0.9,1s1.6,0.4,1.6,0.9    c0,1,11.8,3.7,12.6,2.8c0.3-0.3-1.3-1.5-3.5-2.7c-2.3-1.1-4.1-2.4-4.1-2.7c0-0.7,17.6,0.4,28.3,1.7c8.7,1.1,39.9,8.6,49.1,11.8    c3.2,1.1,7.6,2.1,9.6,2.1c5.8,0,19.2,3.8,21.2,6c1.5,1.7,1.6,2,0.3,2c-2.3,0-1.8,1.8,1.2,4.5c2.2,1.9,2.4,2.4,1,2.5    c-1,0-1.8-0.4-1.8-1s-0.5-0.8-1-0.4c-1.3,0.8-10.1-1.1-16.1-3.6c-2.6-1.1-6.9-1.9-9.5-2s-5.9-0.7-7.3-1.5    c-1.4-0.8-3.4-1.4-4.5-1.4c-1.5,0-1.2,0.4,1.3,1.7c4.3,2.1,4.1,5.4-0.3,6.3c-2.2,0.4-2.6,0.8-1.4,1.3c0.9,0.4,2,0.6,2.5,0.5    s2.2,0.5,3.9,1.4c1.7,0.9,5.4,2.9,8.4,4.5c7.1,3.7,7.3,4.9,0.8,4.5c-4.5-0.3-5.8,0.1-9.3,2.7c-2.2,1.7-4.9,4.8-6,7.1    c-1.4,2.9-2.4,3.9-3.4,3.4c-6.9-2.9-14-2.8-14,0.2c0,1.4-0.2,1.4-2.2,0c-2.7-1.9-3.8-2-3.8-0.2c0,0.9-0.8,1.2-2.4,0.9    c-2.7-0.5-4.4,1.4-2.7,3c0.6,0.6,1.1,2.1,1.1,3.2c0,3.1,2.3,5.7,5.3,6c1.5,0.2,4.2,1.8,6,3.6c1.8,1.8,4.4,4.1,5.8,5.1    c2.4,1.8,2.4,1.8,0.2,1.2c-3.4-0.9-2.8,1.4,1.5,5.7l3.7,3.8h-2.7c-3.4,0-3.6,2.4-0.5,5.7c1.8,1.9,1.9,2.3,0.6,2.3    c-2.6,0-3,1.8-1.2,4.9c1.7,2.9,1.4,8.1-0.5,8.1c-1,0-20.8-17.6-28.7-25.6c-3.2-3.2-5.4-6.4-5.9-8.5c-0.4-1.9-1.1-3.9-1.6-4.5    c-0.6-0.7,0-1.6,1.6-2.4c1.4-0.7,2.5-2,2.5-2.9c0.2-5.7,1.2-10.7,2.6-13c1.5-2.6,1.5-2.8-1-5.5c-1.4-1.6-2.6-3.4-2.6-4.2    c0-1.7-3.6-1.8-4.6-0.2c-0.4,0.7,0.1,1.8,1.3,2.5c2,1.3,2,1.4-0.7,4.3c-2.7,2.8-2.9,2.9-5.8,1.4c-1.7-0.8-3.3-2.2-3.6-3    c-0.4-1.1-2.2-1.5-6.5-1.5c-3.3,0-6.2,0.4-6.5,0.8c-0.3,0.4-0.8,3.1-1.2,5.8l-0.7,5l3.9,1.5l3.9,1.5l-7.8,0.8    c-6.4,0.6-8,0.5-9-0.7c-1.5-1.9-10.7-3.3-11.7-1.8c-0.4,0.7-5.4,1.2-14,1.3c-12.2,0.2-13.4,0.4-14.4,2.2c-0.6,1.1-1.5,2.3-2,2.6    s-0.6,1.1-0.2,1.7c0.4,0.6,0,2.4-0.9,4.1c-0.8,1.6-1.5,3.8-1.5,4.8s-1.1,3.4-2.5,5.2c-3.4,4.6-3.2,5.8,1.2,6.6    c2.1,0.4,4.8,1.6,6,2.7c2.2,2,2.2,2,2.2,0.1c0-2.8-1.2-4.2-4-4.7c-2.1-0.4-2-0.5,0.8-0.6c1.9-0.1,3.2,0.4,3.2,1.1    c0,1.4,4.2,7.8,5.2,7.8c0.4,0,1-0.9,1.3-2c0.4-1.2,1.5-2,2.8-2c3.7,0,12.6,4.7,16.2,8.7c3.8,4.2,5.7,4.1,2.4-0.1    c-1.2-1.5-1.8-3.4-1.5-4.3c0.3-0.9,0.1-2.2-0.5-3c-0.6-0.8-0.7-1.4-0.2-1.4s3.1,2.4,5.9,5.2c2.7,2.9,9.6,9.8,15.3,15.3    c9.3,9.1,10,10.1,7.2,9.6c-1.7-0.2-3.1,0-3.1,0.5c0,2.8,3.4,8.5,6.6,10.9c2,1.5,4.6,3.6,5.8,4.6l2.2,1.8l-2.2-1.1    c-3.3-1.6-4.3-1.3-4.3,1.1c0,2.8-1,1.7-4.5-4.7c-1.5-2.8-4-6.8-5.6-9c-1.6-2.2-4.7-6.5-6.8-9.5c-7.6-10.6-12.9-14.2-11.7-7.8    c0.4,1.8,1.4,4.1,2.4,5.2c1,1.1,2.8,3.9,4,6.3c2,3.7,2.2,5.2,1.7,12c-1.4,19.4-6.3,30.2-13,28.8c-1.6-0.3-3.2-1-3.6-1.6    c-0.7-1.1-4-0.3-4,1c0,0.4-1,1.7-2.1,3c-1.7,1.9-2,3-1.5,6.4c0.6,3.7,0.4,4.4-3,7.8l-3.6,3.7l6.6,5.2c6.5,5.1,12.1,11.8,14.5,17.3    c1.6,3.7,0.2,6.3-3.8,7.2c-1.6,0.4-3.3,1.1-3.6,1.6s-1.6,0.9-2.9,0.9c-2.7,0-5.1-4.6-4.1-7.7c0.4-1.3-0.2-2.7-1.9-4.3    c-1.5-1.4-2.3-3-2-4.1c0.9-2.8-3-5.7-6.8-5c-1.9,0.3-4.7-2.2-4.7-4.2c0-6.4-1.9-8-9.3-7.9c-2.9,0-5,0.9-8,3.3    c-2.9,2.3-3.8,2.7-3.4,1.4c0.4-1,0.2-2.4-0.4-3.1c-0.8-0.9-0.8-1.9,0-3.3c1.5-2.9,0.3-5.1-2.8-5.1c-2,0-3.5,1.1-5.9,4.2    c-1.8,2.3-3.2,4.5-3.2,5s-1.3,0.8-3,0.8c-2.3,0-3,0.5-3,1.9c0,2.4,1.9,4,5.9,4.8c2.1,0.4,3.5,1.5,4.1,3c1.3,3.5,3.9,4.1,5.9,1.3    c1.7-2.2,1.9-2.3,7.5-0.9c6.4,1.6,8.1,3.4,4,4.4c-2.7,0.7-9.5,8.6-9.5,11c0,0.7,1.8,2.5,3.9,3.8s5.3,4.5,7,6.9    c1.7,2.5,4.5,5.7,6.3,7.1c1.8,1.5,2.7,2.4,2.1,2.1c-2.7-1.4-2.1,1.4,0.8,3.5l3.1,2.2l-2.6,1.6c-3.1,1.9-3.4,3.1-0.7,3.1    c1.1,0,2.2,0.5,2.6,1c1,1.5,2.3,1.2,2.9-0.8c0.3-1,0.3,1.6,0,5.8c-0.4,4.8-1.1,7.8-1.9,8.3c-0.8,0.4-1.4,1.8-1.4,3    s-0.7,3.3-1.6,4.5c-0.9,1.3-1.4,3.5-1.2,5.2c0.2,1.6,0.1,2.9-0.2,2.9s-1.5,1.5-2.4,3.2s-3.5,4.6-5.6,6.2s-4.1,3.8-4.5,4.8    c-0.3,1-1.6,1.8-2.7,1.8s-4.1,1-6.6,2.2c-3.1,1.5-4.6,1.8-4.9,1c-0.6-1.9-2.2-1.3-2.2,0.8c0,1.1-0.7,2-1.5,2    c-0.8,0-1.5,0.5-1.5,1.1s-0.8,0.8-1.8,0.5c-2.4-0.8-8.7,1.9-9.5,4c-0.3,0.9-0.6,2.5-0.6,3.5s-0.4,1.9-0.8,1.9    c-1,0-3.2-4.5-3.2-6.4c0-1.6-5.7-2.6-8.6-1.5c-3.1,1.2-10.3,8.7-11,11.5c-1.1,4.5,0.5,7.3,10.4,17.4    c11.1,11.4,13.6,16.5,13.4,27.5c-0.1,5.5-0.4,6.2-3.4,8.8c-1.8,1.5-4.5,3-6,3.4c-1.7,0.4-2.9,1.4-3.2,2.8c-0.3,1.2-2.6,4-5.2,6    l-4.6,3.8l0.3-4.6c0.2-3.9-0.1-4.9-2-6.3c-1.9-1.4-2.5-1.4-3.2-0.2c-0.7,1.1-0.9,1-0.9-0.4c0-1-0.5-1.8-1-1.8    c-0.5,0-0.9-0.3-0.9-0.8c0.3-2-0.2-2.6-1.1-1.3c-0.7,1.2-1.2,0.9-2-1.5c-1.5-4-5.4-7.5-9.6-8.6c-2.7-0.8-3.4-1.5-3.4-3.4    c0-1.7-0.6-2.5-1.9-2.5c-2.1,0-3.1,1.9-3.1,5.8c0,1.5-0.7,5.9-1.5,9.9c-1.1,5.3-1.2,7.8-0.4,9.3c0.6,1.1,1.4,1.8,1.8,1.5    c0.4-0.3,1.9,2.5,3.3,6.2c1.9,4.8,3.4,7.1,5.4,8.2c1.5,0.8,5.1,3.8,8,6.7c5,5,5.2,5.4,5.7,12c0.4,4.9,1.3,8.2,3.2,11.6    c1.9,3.3,2.3,4.8,1.4,4.8c-0.7,0-0.2,0.7,1.2,1.5l2.5,1.4l-2.5,0C477.5,672.5,475.3,671.4,473.9,670L473.9,670z M487.9,616.7    c0-0.5-0.5-1.2-1-1.6s-1,0.1-1,0.9s0.5,1.6,1,1.6S487.9,617.2,487.9,616.7z M88.9,499.6c0-0.5-0.4-0.9-1-0.9s-1,0.7-1,1.6    s0.4,1.3,1,0.9S88.9,500.1,88.9,499.6z M180.1,418.9c-2.7-3.4-5.6-4.3-6.4-2.1c-1.4,3.7,4.1,8.5,7.3,6.5    C182.6,422.4,182.5,422,180.1,418.9z M206.9,400.7c1.1-2.1-1.4-8.6-3-7.6c-0.5,0.3-0.9-0.2-0.9-1.1s-0.6-1.4-1.2-1.2    c-0.7,0.2-1.2,1.1-1.1,2c0.1,0.9-0.4,1.4-1.2,1c-0.8-0.3-1.4,0.1-1.4,1.1c0,0.9,0.7,1.9,1.5,2.2c0.8,0.3,1.5,1.4,1.5,2.3    s0.3,2,0.7,2.4C202.9,403.3,205.9,402.6,206.9,400.7z M198.2,398.6c-0.6-2.2-2.3-3.8-2.3-2.1c0,1.7,1.2,4.1,2,4.1    C198.4,400.6,198.5,399.7,198.2,398.6z M274.9,390.5c2.3-4.3,2.2-5.5-0.4-4.5c-2,0.8-4,5.1-3.2,7.1    C272.1,395.3,272.5,395.1,274.9,390.5z M295.6,387.3c0.4-0.4-1.3-0.7-3.7-0.6c-3.1,0-3.8,0.3-2.5,0.8    C291.6,388.4,294.6,388.3,295.6,387.3z M281.7,386c-0.3-0.3-1.2-0.4-1.9-0.1c-0.8,0.3-0.6,0.6,0.6,0.6    C281.4,386.6,282,386.3,281.7,386z M411.9,353.6c0-1,0.8-2.1,1.9-2.4c5.3-1.7,7.1-7.6,4.2-14.1c-2.9-6.5-4.1-6.4-4.1,0.4    c0,7.7-3.9,15.9-8.4,17.4c-2.6,0.9-2.8,1.1-1,1.7C407.3,357.7,411.9,355.8,411.9,353.6z M682.7,269c-0.3-0.3-1.2-0.4-1.9-0.1    c-0.8,0.3-0.6,0.6,0.6,0.6C682.4,269.6,683,269.3,682.7,269z M230.9,260.3c0-1.5-4.9-4.1-5.9-3.1c-0.3,0.4-0.1,0.9,0.5,1.1    s2,1,3,1.8C230.9,261.9,230.9,261.9,230.9,260.3z M344.4,231.6c-0.3-0.5-1.5-1-2.6-1s-1.7,0.5-1.4,1c0.3,0.5,1.5,1,2.6,1    S344.8,232.2,344.4,231.6z M304,658c0-1.2,0.3-1.4,0.6-0.6c0.3,0.7,0.3,1.6-0.1,1.9C304.2,659.7,304,659.1,304,658z M594,644    c0-0.6-1.6-2.1-3.6-3.2c-2.7-1.6-3.5-2.7-3.5-4.9c0-1.6-0.6-3.7-1.4-4.7c-1.3-1.8-1.5-1.8-3.1-0.2c-1.3,1.3-2.1,1.5-3.1,0.6    c-1-0.8-1.6-0.6-2.5,1.1c-1.5,2.9-2.3,1.8-1.5-1.9c0.5-2.1,1.3-3.1,2.5-3.1c1,0,2.1-0.7,2.4-1.5c0.7-1.8,4.3-2,4.9-0.2    c0.3,0.9,1,0.7,2.5-0.6c1.2-1.1,1.8-2.5,1.5-3.4c-0.4-1.1-0.2-1.3,0.6-0.8c0.7,0.4,1.9,0.5,2.7,0.2c1.1-0.4,1.2-1.1,0.4-3.2    c-0.5-1.4-0.7-3-0.4-3.5c0.8-1.3,4.6,1.4,4,2.9c-0.3,0.7,0.1,2.5,0.9,4c2.1,4,2.9,8.9,2.1,12.9c-0.6,3.2-0.8,3.3-1.9,1.8    c-1.8-2.5-3.8-1-2.5,1.9c0.7,1.5,0.7,3.1,0,4.7C594.5,644,594,644.6,594,644z M343.2,639.4c-1.3-2.1-1.3-22.9,0-22.5    c2.6,0.8,8.9,11.6,9.4,16c0.4,3.9,0.2,4.7-1.8,6.1C348,640.9,344.4,641.1,343.2,639.4z M549,624.6c0-1.7,5.6-7.6,6.4-6.8    c0.3,0.3-1,2.3-2.9,4.4C550.3,624.7,549,625.5,549,624.6z M578.1,619.5c-2.2-2-2.2-2.2-0.5-4c2-2.2,1.4-3.1-2-3.1    c-2.2,0-2.5-0.5-2.8-4.1l-0.3-4.1l3.2,1c2.1,0.7,3.2,1.7,3.2,2.9c0,1.5,0.5,1.7,2.8,1.2c2-0.5,2.4-0.4,1.2,0.4    c-1.3,0.9-1.3,1,0.2,1c1,0,1.8,0.6,1.8,1.4c0,0.8,0.7,1.9,1.5,2.6c2.1,1.7,1.9,3-0.5,3c-1.1,0-2-0.6-2-1.4c0-2-2.7-2.8-3.4-1    c-0.9,2.2-0.7,3.1,0.3,1.5c1.4-2.2,2,0.2,0.7,2.6l-1.2,2.3L578.1,619.5z M556,615.9c0-0.4,0.8-2.5,1.8-4.5    c1.7-3.7,1.7-3.7,2.8-1.3c1,2.1,0.8,2.7-1.8,4.5C557.2,615.7,556,616.3,556,615.9z M588.9,613.1c0-0.9-0.7-2.2-1.5-3.1    c-0.8-0.8-1.5-2.1-1.5-2.9c0-0.8,0.6-1.2,1.5-0.8c2.1,0.8,1.9-1-0.5-3.1c-2.7-2.4-2.5-3.5,0.4-3.5c2.7,0,3.5,0.9,5.2,5.7    c1,2.7,0.9,3.2-0.6,3.6c-1.3,0.3-1.6,1.2-1.2,3.1c0.3,1.6,0.1,2.6-0.6,2.6C589.4,614.6,588.9,613.9,588.9,613.1z M580.7,602.5    c-2.2-1.3-2.4-4.1-0.1-3.2c1.3,0.5,1.4,0.3,0.6-1.3c-0.6-1-2.3-3-3.8-4.4l-2.7-2.5l0.6,2.4c0.4,1.7,0.3,2.1-0.5,1.3    c-0.6-0.6-1.7-0.8-2.5-0.5c-1,0.4-1.2,0-0.8-1.1c0.4-1.2,0-1.6-1.4-1.6c-2.9,0-3.5,1.6-1.6,4.4c1.5,2.3,1.3,4.6-0.5,4.6    c-0.4,0-2-1.8-3.4-4c-1.5-2.3-2-3.7-1.2-3.4c0.8,0.3,1.7,0.1,2.1-0.5s0.1-1.1-0.5-1.1c-0.8,0-1-1-0.6-3.1c0.5-2.7,0.4-3-0.9-1.9    c-1.3,1-1.8,0.6-3.5-3.1c-2.1-4.7-2.6-8.4-1-7.4c0.6,0.4,1-2.2,1-7.1v-7.7l3.1,0.6c1.7,0.3,3.7,0.6,4.4,0.6c1.2,0,2,2.6,3.1,10.2    c0.4,2.9,0.2,3.9-1.1,4.4c-2.6,1-2.1,6.3,0.6,7.3c2,0.8,2.1,0.9,0.5,1.6c-2.8,1.1-2,2.5,1.5,2.5c1.8,0,3.7,0.4,4.3,1    s2.5,1.2,4.5,1.4c1.9,0.2,3.3,0.8,3.1,1.3s-1.3,0.8-2.5,0.6c-2.1-0.3-2.1-0.3-0.1,1.3c1.4,1.1,2,2.8,2,5.5    C583.4,603.9,583.3,604.1,580.7,602.5z M594.8,482.9c-0.9-0.2-2.4-2.1-3.4-4.3c-1-2.1-2.8-4.9-4.1-6.1l-2.3-2.2l2.5-3.1    c1.4-1.7,3.8-4.5,5.3-6.2c1.5-1.7,3-3.6,3.2-4.2c0.2-0.7,3.4-1.3,8.2-1.4c7.1-0.2,7.8-0.4,7.3-2.1c-0.6-2.3,1.4-5.6,3.4-5.7    c0.8,0,2.6-0.8,3.9-1.8c1.9-1.5,2.4-3,2.9-8.6c0.5-5.8,0.3-7-1.3-8.1c-1.2-0.9-1.8-2.7-1.9-5.6c-0.1-3.7,0.2-4.3,2.2-4.6    c2.6-0.4,3.1,1.4,0.5,2.2c-1.2,0.4-1.1,0.5,0.4,0.3c2.7-0.2,10.3,8.1,10.3,11.3c0,1.2,0.5,3,1,4.1c0.8,1.5,0.7,1.8-0.5,1.3    c-1.9-0.7-1.9,1.5,0,4.1c0.8,1.1,1.5,3,1.5,4.3c0,1.3,0.7,3.6,1.4,5.2c2.1,4,1,7.4-2.1,6.7c-1.7-0.4-2.4-0.2-2.4,0.9    c0,2.1-1.6,1.9-2.5-0.2c-0.6-1.6-0.8-1.5-1.6,0.5c-0.9,2.5-3,2.8-6.1,1.2c-2.5-1.3-4-0.2-1.6,1.2c1.2,0.7,1.4,1.3,0.7,2.2    c-0.6,0.7-1.6,2.1-2.4,3.2c-1.3,1.9-1.5,1.8-5.5-2.4c-2.7-2.9-4.6-4.1-5.7-3.7c-2.1,0.8-0.9,2.6,1.7,2.6c1.6,0,1.9,0.6,1.7,2.8    c-0.2,2.2-0.8,2.7-2.5,2.5c-1.5-0.2-2.4,0.4-2.8,1.8c-0.8,2.4-1.8,2.6-3.5,0.5c-2.3-2.7-3-1.6-3,4.9    C597.9,482.7,597.6,483.5,594.8,482.9L594.8,482.9z M598.9,467.7c1.4-2.7,1.3-3.7-0.5-3.7c-0.8,0-1.5,0.3-1.5,0.8    s-1.5,0.9-3.2,1.1l-3.2,0.3l3,1.6C597.4,469.9,597.7,469.9,598.9,467.7z M603.9,463.6c0-0.5-0.7-0.9-1.5-0.9c-1.5,0-2,1.2-0.9,2.3    C602.4,465.7,603.9,464.8,603.9,463.6z M74.3,460.2c-2.4-1.7-1.9-2.2,3.4-3.4c3.4-0.8,4.2-0.7,4.2,0.4c0,0.8-1.3,2-2.9,2.9    C76.6,461.3,75.9,461.3,74.3,460.2z M611.9,444.6c0-0.5,0.5-1,1-1s1,0.5,1,1s-0.5,1-1,1S611.9,445.2,611.9,444.6z M612.7,415.4    c-2.1-2.4-2.5-3.4-1.6-4.5c0.8-1,0.8-1.7,0-2.7c-0.9-1.1-0.6-1.3,1.4-0.9c2.4,0.5,2.5,0.3,1.9-2.4c-0.8-3.4-3.2-7.4-5.3-9    c-0.9-0.7-1.1-1.3-0.5-1.7c0.6-0.3,3,0.7,5.5,2.4c5.9,3.9,15.5,7.2,16.4,5.7c0.4-0.7,0.9-0.4,1.4,0.8c0.6,1.7,0.8,1.7,1.8-0.8    c1.4-3.7,1.8-3.5,1.3,0.8c-0.3,2.5,0,3.5,1,3.5c2.1,0-2.2,3-4.4,3c-1,0-2.2,1.1-2.8,2.5c-0.9,2.2-1.2,2.4-3.7,1.4    c-3.7-1.4-11.3-2-11.3-0.8c0,0.5,1.1,1.5,2.5,2.1c1.9,0.9,2.2,1.4,1.4,2.5C616.3,419.1,615.8,419,612.7,415.4z M457.1,234.9    c-5.7-0.3-6.1-0.5-4.7-1.9c1.3-1.3,2.3-1.4,6.3-0.4c4.8,1.2,9.3,3.2,6.2,2.8C464.1,235.3,460.6,235.1,457.1,234.9z M447.9,230.6    c0-1.3,1.1-1.3,3,0c1.2,0.8,1.1,1-0.8,1C448.9,231.6,447.9,231.2,447.9,230.6z M253.9,207c-4.1-0.8-9.4-1.6-11.7-1.7    c-5.7-0.3-7.1-1.9-4.4-4.8c1.9-2,2.8-2.2,8.8-1.7c4.6,0.4,7,1,7.6,2.1c0.6,1,3,1.8,6.8,2.2c4.4,0.5,6.4,1.3,8,3l2.1,2.4l-4.7-0.1    C263.6,208.5,258,207.8,253.9,207L253.9,207z"/>
	</g>
</g>
</svg>