<?xml version="1.0" encoding="UTF-8"?>
<!-- Generator: Adobe Illustrator 24.0.0, SVG Export Plug-In . SVG Version: 6.00 Build 0)  -->
<svg version="1.1" id="Layer_1" xmlns="http://www.w3.org/2000/svg" xmlnsXlink="http://www.w3.org/1999/xlink" x="0px" y="0px" viewBox="0 0 82.9 75.6" style="enable-background:new 0 0 82.9 75.6;" xmlSpace="preserve">
<style type="text/css">
	.st0{fill-rule:evenodd;clip-rule:evenodd;}
</style>
<g>
	<polygon fill="#8c8c8c" points="29.7,65.9 29.6,65.8 29.6,65.5 29.5,65.4 29.4,65.2 29.4,65.2 29.3,65.2 29.3,65.2 29.4,65 29.4,64.9 29.2,64.7    29.1,64.7 29,64.6 28.9,64.6 28.8,64.5 28.6,64.5 28.6,64.7 28.5,64.7 28.2,65 28.2,65.1 28.2,65.1 28,65.1 27.9,65.2 27.5,65.2    27.3,65.1 27.2,65.1 27.2,65.4 27.1,65.4 27.1,65.6 27.4,65.9 27.4,66 27.5,66.1 27.6,66.2 27.6,66.8 27.5,66.8 27.5,67.2    27.6,67.2 27.7,67.4 27.5,67.5 27.6,67.8 27.5,67.9 27.5,68.4 27.6,68.6 27.6,68.6 27.7,68.8 27.7,68.9 27.9,69 28.4,69 28.4,68.9    28.5,68.8 28.5,68.5 28.6,68.3 28.8,68.3 28.9,68.5 29.3,68.6 29.5,66.8 29.4,66.6 29.4,66.3 29.5,66.3 29.6,66 29.7,66  "/>
	<polygon fill="#8c8c8c" points="37.8,70 37.8,69.9 37.7,70 37.6,70 37.6,70 37.4,70.1 37.3,70 37.3,70.1 37.3,70.2 36.7,70.2 36.4,70.4 35.5,70.5    35.3,70.6 35.1,70.6 35,70.5 34.9,70.5 34.6,70.3 34.5,70.3 34.4,70.3 34.2,70.3 34.2,70.4 34.1,70.5 33.9,70.5 33.8,70.4    33.6,70.4 33.4,70.5 33.4,71 33.3,71.1 33.5,71.3 34.1,71.3 34.2,71.4 34.4,71.5 34.6,71.5 34.8,71.8 35,71.8 35.5,72.1 36,72.1    36.2,72.2 36.2,72.3 36.8,72.7 37.3,72.8 37.4,72.7 37.3,72.4 37.7,72.1 37.6,72 37.6,71.9 37.5,71.9 37.5,71.8 37.4,71.7    37.3,71.7 37.3,71.6 37.3,71.5 37.3,71.3 37.4,71.2 37.4,71.1 37.4,70.9 37.5,70.7 37.7,70.2 37.7,70.1 37.8,70.1  "/>
	<polygon fill="#8c8c8c" points="29,61.5 28.9,61.7 28.9,61.7 28.8,61.6 28.7,61.6 28.5,61.8 28.2,61.8 28.2,61.9 28.1,61.9 28,61.9 28,62.3    27.8,62.4 28,62.5 27.8,62.6 27.9,62.8 28.1,63 27.9,63.1 28.1,63.3 28.1,63.4 28,63.5 28,63.6 28.2,63.6 28.3,63.7 28.2,63.8    28.2,63.8 28.4,64 28.5,64 28.6,64.1 28.6,64.1 28.7,64.2 29,63.9 29.1,63.1 29.3,63 29.3,62 29.2,61.9 29.2,61.2 29,61 29,61.1     "/>
	<polygon fill="#8c8c8c" points="1.2,44.3 1.4,44.4 1.4,44.5 2.6,44.3 2.7,44.1 2.9,44.1 2.9,44 2.8,43.9 2.9,43.7 3,43.7 3.1,43.7 3.2,43.9    3.3,44 3.4,43.9 3.8,43.6 4,43.5 4.1,43.4 4.1,43.3 4.4,43.2 4.6,43.3 4.9,43.3 5,43.2 5,43.3 5.1,43 5.3,43.1 5.4,43.3 5.5,43.3    5.7,43.3 5.8,43.1 5.8,42.8 6,42.7 6.2,41.8 6.5,41.6 6.4,40 6.1,39.2 6.3,39 6.4,39 6.5,39 6.7,39 6.8,38.7 7.2,38.6 7.5,38.3    7.4,37.6 7.2,37.6 6.9,37.6 6.9,37.4 7,37.4 7.1,37.4 7.2,37.3 7.1,37.2 7.1,37 6.8,36.8 6.7,36.4 6.4,36.2 5.6,36.3 5.6,36.2    5.1,35.8 5,36 4.8,36.1 4.7,36 4.3,36.2 4.1,36.1 4,36.2 3.7,36.4 3.6,36.8 3.6,36.9 3.5,37 3.2,37 3.1,37.1 3.1,37.3 3.2,37.3    3.6,37.4 3.8,37.5 3.6,37.7 3.3,37.8 3.2,37.9 3.2,38.2 3.1,38.3 3.1,38.2 2.9,38.1 2.7,38.1 2.5,38.1 2.4,38.3 2.3,38.2 2.3,38    2,38 1.9,37.9 1.3,37.9 1.2,38 1.3,38.4 1,38.6 1.7,39 1.2,39.2 1.2,39.5 1,39.5 0.9,39.6 0.8,39.9 1.5,40.1 1.4,40.3 1.5,40.4    1.9,40.4 2.2,40.4 2.4,40.4 2.4,40.5 2.2,40.7 2,40.6 1.9,40.7 1.6,41 1.7,41.1 1.3,41.6 1.2,41.7 1.4,41.8 1.5,41.9 1.2,41.9    0.9,42.3 1,42.5 0.8,42.7 0.5,42.5 0.1,42.5 0,42.7 0.2,42.8 0.8,42.8 0.8,43 0.2,43.1 0,43.4 0.2,43.5 0.3,43.7 0.4,43.6    0.9,43.5 0.9,43.6 0.7,43.8 0.5,43.8 0.3,44 0.5,44.1 0.9,44 1.1,43.9 1.2,43.9 1.2,43.9 1.1,44.1 0.9,44.1 0.8,44.4 0.9,44.5  "/>
	<polygon fill="#8c8c8c" points="7.1,32.7 7,32.8 7.2,32.9 7.2,33 7.1,33 6.9,32.9 6.8,33.1 6.8,33.2 6.9,33.3 6.9,33.5 6.8,33.6 6.7,33.7    6.7,33.7 6.8,33.8 7.5,33.7 7.5,33.3 7.6,33.3 7.9,32.9 8,33.4 7.8,33.5 7.5,34 7.5,34.2 7.5,34.3 7.5,34.7 7.5,34.8 7.5,35.1    7.3,35.4 7.3,35.5 7.2,35.9 7.1,36.1 7.4,36 7.5,35.9 7.5,35.7 7.5,35.6 7.6,35.4 7.6,35.3 7.8,35 7.8,34.9 7.7,34.7 7.8,34.5    7.9,34.6 7.9,34.7 8,34.8 8,34.9 8.2,35 8.5,34.3 8.5,34.5 8.5,34.6 8.7,34.7 8.6,34.7 8.4,34.9 8.4,35.1 8.4,35.2 8.6,35.6    8.7,35.7 8.6,35.8 8.6,35.9 8.5,35.9 8,36.9 8,37.3 8.2,37.3 8.2,37.2 8.4,37.2 8.8,37.6 9,37.6 9,37.4 8.9,37.4 8.9,37.2    9.3,37.4 9.4,37.5 9.5,37.5 9.7,37.3 9.8,37.3 10,37.2 10,37 10.2,37 10.3,37 10.4,37.1 10.2,37.4 10.2,37.5 10.1,37.7 9.9,37.9    9.9,38 10.1,38.2 10.2,38.7 10.4,38.8 10.5,39 10.6,39 10.6,38.9 10.8,38.9 11,39.1 10.9,39.3 10.9,39.4 10.8,39.4 10.7,39.6    10.6,39.8 10.7,40 10.7,40 10.7,40.2 10.5,40.4 10.7,40.7 10.8,40.8 10.7,40.8 10.5,40.7 10.5,41 10.4,41 10.3,40.9 9.1,41    8.8,41.3 8.8,41.5 8.2,42 8.3,42 8.6,41.9 8.7,41.8 8.9,41.8 9,41.8 9.1,43 9,43.2 8.6,43.3 8.5,43.5 8.3,43.5 7.9,43.8 7.5,43.8    7.4,44 7.4,44.1 7.5,44.2 7.5,44.3 7.4,44.4 7.4,44.5 7.5,44.5 7.5,44.6 7.8,44.7 8.1,44.6 8.2,44.5 8.4,44.5 8.5,44.4 8.5,44.4    8.7,44.7 8.9,44.6 8.9,44.7 8.7,44.8 8.6,44.9 8.7,45 9,44.9 9.1,44.8 9.3,44.7 9.4,44.9 9.4,45 9.5,45 9.5,45.1 9.7,45.3 10,45.4    10.3,45.3 10.3,45.3 10.3,45.1 10.4,45 10.7,45 11,44.8 11.1,44.7 11.4,44.5 10.4,45.6 10.4,45.7 10.4,45.8 10,45.8 9.8,45.6    9.6,45.7 9.5,45.6 8.8,45.7 8.6,46.1 8.5,46.2 8.4,46.1 8.2,46.4 8.2,46.6 7.7,47.1 7.6,47.1 7.1,47.7 6.7,48 6.6,48 6.4,48.1    6.3,48.3 6.6,48.3 6.7,48.2 6.9,48.1 7,48.2 7.1,48.4 7,48.4 7.1,48.5 7.2,48.5 7.3,48.3 7.3,48.2 7.6,48 7.7,48 7.7,47.9    7.8,47.8 8.6,47.6 8.7,47.5 8.8,47.6 8.9,47.8 8.9,47.8 9,47.9 9.2,48.1 9.4,48.1 9.4,48 9.6,47.9 9.7,47.7 9.7,47.6 9.7,47.5    9.7,47.2 10.3,46.9 10.9,47 11.1,47.2 12.1,47.1 12,46.9 12.8,46.8 12.8,46.7 12.9,46.6 13.5,46.7 13.6,46.8 15.6,46.7 16,46.5    16.2,46.5 16.2,46.4 16.2,46.3 16.5,46.1 16.7,46.1 16.9,45.9 16.9,45.7 16.9,45.4 16.8,45.3 16.5,45.3 16.5,45.4 15.7,45.3    15.6,45.2 15.6,45.2 15.6,45.1 16.1,45 16.2,44.9 16.2,44.7 16.1,44.7 15.9,44.6 16,44.6 16.1,44.5 16.3,44.4 16.4,44.5 16.4,44.4    16.6,44.4 16.7,44.2 16.6,44.2 16.4,44.1 16.8,44 17.1,43.7 17.3,42.8 17.3,42.6 17.3,42.4 17,42 15.9,41.7 15.5,41.8 15.4,42.1    15.3,42.2 15.1,42.2 15.1,42.1 15.1,42 15,41.8 15,41.7 15.3,41.5 15.1,40.8 15,40.6 14.8,40.4 14.6,39 14.3,38.8 14.1,38.5    14.1,38.4 14.1,38.3 13.8,38 13.2,37.9 13.1,37.8 12.9,36.8 12.7,36.7 12.6,36.3 12.7,36 12.6,35.8 11.4,34.6 10.8,34.8 10.4,34.7    10.5,34.6 10.7,34.6 10.7,34.4 11,34.2 11.2,34.2 11.3,34.1 11.4,33.9 10.8,33.8 11.3,33.5 11.4,33.5 11.9,32.8 11.9,32.6    12.1,32.4 12.2,31.8 12.4,31.4 12.5,31.3 12.6,31.2 12.1,30.7 12,30.7 11.8,30.8 11.2,30.8 11,30.8 10.5,30.7 10.2,30.9 10.1,31    9.8,31 9.8,31 9.8,30.8 9.8,30.7 10,30.5 9.5,30.3 9.6,30.3 10.1,29.9 10.2,29.8 10.9,29.2 11,29 10.9,28.9 11,28.7 10.9,28.5    9.4,28.8 9.2,28.7 9,28.7 8.9,28.7 8.8,28.6 8.7,28.5 8.6,28.6 8.5,29.1 8.4,29.2 8.3,29.3 8.2,29.6 8,29.9 8.3,30.1 8.1,30.2    7.8,30.2 7.7,30.2 7.5,30.2 7.6,30.6 7.5,30.7 7.6,30.8 7.6,30.9 7.5,31 7.4,31.2 7.5,31.4 7.6,31.5 7.5,31.6 7.6,32 7.4,32.2    7.4,32.6 7.3,32.7  "/>
	<polygon fill="#8c8c8c" points="53.9,74.7 53.6,74.9 53.5,74.8 53.5,74.6 52.1,74.5 51.9,74.6 51,74.7 50.8,74.4 50.3,74.5 50.2,74.3 50.1,74.5    49.9,74.5 49.9,75 51.8,75.2 52.1,75.6 52.4,75.4 53.1,75.4 53.4,75.1 54.2,75.1 54.4,74.9 54.5,74.8  "/>
	<path fill="#8c8c8c" class="st0" d="M53.4,64.5L53.4,64.5l0.2,0L53.4,64.5L53.4,64.5z M51.8,64.2l0.5,0.2L51.8,64.2L51.8,64.2z M48.8,64.5   L48.8,64.5l0,0.1L48.8,64.5L48.8,64.5z M47.7,64.7l0.3,0.1L47.7,64.7L47.7,64.7z M28,39.1l0.3,0L28,39.1L28,39.1z M53.8,32.3   L53.3,32L53.8,32.3L53.8,32.3z M39,54.2L39,54.2L38.9,54L39,54.2L39,54.2L39,54.2z M40.3,52.5l-0.1,0.1L40.3,52.5L40.3,52.5z    M44.4,55.5h-0.1l0.2,0L44.4,55.5L44.4,55.5z M74.5,49.1L74.1,49l-0.9-0.6L73,48.6l-0.8-0.4l-0.6,0.1l-1-1l-0.1,0.1l-1.2,0.2   l-0.3-0.1l-0.2-0.2l-0.1,0l-0.3,0.1l-0.4-0.2l-0.1-0.1l0-0.5l-0.2-0.5l-0.3-0.2l-1-0.1L66,45.5l0-0.1l-0.1-0.1l-0.1-0.3l0.2-0.2   l0-0.2l-0.4-0.4l-0.1-0.2l-0.2-0.2l-1.1-0.1l-0.3,0.2h-0.3l-0.1-0.1l-0.3-0.1L63,44.1l-0.4,0.1l-0.2-0.1h-0.2l0.1-0.2v-0.2L62,43.4   l-0.1-0.7l-0.3-0.4l0.1-0.3l1.2,0l0.3-0.1l0.3-0.3v-0.2l-0.4-0.6l-0.3-0.1l-0.5,0l-0.1-0.1l0.1-0.2l0-0.2h-0.2l-0.4-0.2l-0.4-0.6   l0-0.2l-0.4-0.3l-0.1-0.4l0.3-0.4l-0.2-0.3l0-0.5l-0.3-0.4l-0.4-0.3l-0.9,0l-0.2,0.1l-0.4,0.1l-0.1-0.1l-0.1-0.4L58.5,36l-0.8,0.1   L57.6,36h-0.4l-0.3-0.2l0-0.5l-0.1-0.2L56.8,35l-0.1-0.2l-0.3-0.3l0-0.2l-0.1-0.1l-0.2,0v-0.1l0.2-0.2l0-0.7l-0.5-0.5l-0.5,0l0.5,0   l0-0.4l0.4-0.4l0-0.3l-0.3-0.3l0.1-1l-0.1-0.2v-0.2l0.1-0.2h0.1l0.2-0.1l0.1-0.2l0.1-0.1l-0.1-0.2l0.3-0.2h0.3l0-0.2l-0.2-0.2   l-0.1,0.1l-0.3,0.1l-1,0l-0.4-0.2l-0.4,0l-0.1-0.1l-0.8-0.1l-0.2,0.1h-0.2L53,28.3l-0.2,0.2h-0.9l-0.1,0.1h-0.5l-0.2,0.1L51,28.9   l-0.9,0.4L50,29.3v0.3l0.1,0.1L50,29.8l0,0.8l0.2,0.4l0.2,0.1h0.2l0.1,0.1l0.4-0.2l0.2,0.3v0.2l-0.2,0.4V32l0.1,0h-0.2l0,0.5   l0.1,0.2l0,0.4l-0.3,0.3l-0.7,0.4l-0.5-0.1l-1.5-1.6l-0.1,0.1h-0.2L48,32.4l-0.2,0l-0.1,0.1l-0.3,0l-0.5,0.7v0.3l-0.1,0.2l-0.4,0.4   l-0.1,0.3l0.2,1.9l0.1,0.1l0.1,0.3l0,0.1l0.1,0.1l0,0.2l-0.2,0l-0.2,0.2l0,0.3l0,0.1l-0.3,0.1l-1,0l0,0.1l0.2,0.5L44.8,39h-0.2   l-0.5,0.5L43,39.4l-0.2-0.1l-0.2-0.2l-0.1-0.3v-0.2l-0.1-0.2l-1.1,0L39,39.5l-0.1,0.1h-0.2l-0.1,0.1l-1.2,0.2L37.3,40l-0.5,0.2   l-0.1,0.1h-0.2l-0.3,0.3h-0.1L36,40.5l-0.1-0.2l-0.2-0.2h-0.5l-0.2-0.2h-0.4l-0.4-0.4l-0.6,0.1L33.1,40L33,39.9l-0.2,0l-0.1,0.1   l-0.2-0.1l-0.2,0.2l0,0l-0.1,0.1L32,40.4h-0.1l-0.2,0.1h-0.2l-0.1,0.1v0.1h-0.2v0.2H31l-0.1-0.1l-0.3,0l-0.1,0.1l-0.2-0.2l0.3-0.3   l0-0.1v-0.1l-0.1-0.2l-0.2,0.2l-0.2,0l-0.1-0.1L29.8,40h-0.1l-0.1,0l-0.1-0.1h-0.3l-0.1-0.5l0,0l0-0.1l0-0.1l0,0l0-0.1l0,0l0.1,0v0   l0,0l0,0l0,0.1l0.1,0l0,0l0,0l0,0l0,0l0,0l0,0l0,0l0,0l0,0l0,0l0,0l0,0h0.1l0,0h0l0,0h0l0,0l0,0h0l0,0l0,0l0,0h0l0.1,0l0,0l0-0.2   l-0.3-0.3l-0.2,0l0,0l0,0h0l-0.1,0l0.2,0.1l0,0l0,0l0.1,0.1l0,0l-0.1-0.1l0,0V39l0,0v-0.1l0,0l0,0l-0.1,0l0,0h0l-0.1-0.1l0,0   l-0.1,0l0,0h-0.1l0,0h-0.1l0.1-0.1l0,0l0,0l0,0l0,0v-0.1l0,0h0v0l0,0l0,0l-0.1,0l0.1-0.1l0.1,0l0.1-0.1l0-0.1l0,0l0,0v0l0,0h0l0,0   l0,0l0,0l0-0.3h0l0,0v-0.1l0,0l0,0h-0.2v0l0.1,0v0l0,0l0.1,0l0,0l0.1,0.1l0,0l0.1,0.1h0l0,0l0,0v0l0.1,0.1h0l0,0l0,0l0,0l0,0v0l0,0   l0.1,0.1l0.1,0v0.1l0,0l0,0l0,0.1l0,0l0,0l0.1,0v0.1l0,0v0.1l0,0v-0.1l0,0l0-0.1l0,0l0,0l0,0l0,0l0,0v0l0,0l0,0.1l0,0l0,0l0,0l0,0   l0.1,0l0,0h0l0,0l0,0l0,0l0.1,0.1l0,0h0l0.1,0h0.1l0,0h0.1l0.1,0h0.1l0.1-0.1l0.2,0l0-0.1v0l0-0.1v-0.3l0-0.1l0,0h0l-0.1-0.2   l-0.1-0.1l0-0.1l0,0l0,0l0,0l-0.1-0.1v-0.1l-0.1-0.1l0,0v0.1l0,0l0,0v0.1l0,0l0,0l0.1,0l0,0l0,0l-0.1,0l0,0l0,0l0,0.1h-0.1l0,0v0   l0.1,0l0,0h0l0,0l0,0l0.1,0h0l0,0h0l0,0l0-0.1l0,0h-0.1L30,37.3l0,0v0.1h0v0l0,0l-0.4,0.2l0,0l-0.1,0l0-0.1l0,0l-0.1,0l0-0.1l0,0   l0.1-0.1v0l0,0l-0.1,0l-0.1,0l0-0.1l-0.1-0.1H29l0,0h0.1l0.2,0.1l0.3-0.1l0,0l0.1,0l0,0l-0.1,0l0-0.1v0l0,0l-0.1,0l-0.1,0h0v0   l0.2,0l0,0h-0.1l0,0l0,0h0.2l0,0l0,0l0,0l0.1,0v0l0,0l0,0l0.1-0.1l0-0.1v-0.1l0-0.1l0-0.1v0l-0.1,0l0.1-0.1l-0.1-0.2l0-0.1l0.1-0.2   l0-0.1l0,0l0.1,0v0l0,0.1l0,0.1l0,0l0,0l-0.1,0l0,0.1l0,0.1h0l0,0l0,0l0.1,0l0,0l0-0.1l0,0l0.1,0l0,0l0,0v0l0,0l0.1,0.1h0l0,0l0,0   l0-0.1l0-0.1l0.1-0.2l0,0l0-0.1l0.1-0.1l-0.1-0.1l0-0.1l0,0l0,0l-0.2,0l0,0l-0.1,0l-0.2-0.1h0l0-0.1v0l0,0l0,0l-0.1,0l0,0l0,0   l0,0.1l0-0.1l0-0.1l0.2-0.2l0,0l-0.1-0.1l0,0l0,0l0.1,0l0,0l0-0.1l0-0.1l0,0l0-0.1l0,0l0-0.5l0.1,0l0.2-0.5l0.1-0.1l0-0.5l0-0.1   l-0.2-0.2l0-0.2l0-0.1l0.1-0.1l0,0l0.1-0.1l0,0l-0.1,0l-0.2,0.2l-0.1,0l0,0l-0.4,0l-0.5,0.9l-0.2,0.1l-0.3,0.1l-0.2-0.1L28,33.7   l0,0l-0.3,0l-0.1,0l-0.1,0.1l0,0l0,0l-0.4,0.6l0,0.2l0,0h0l0-0.1l0.1,0.1v0.1l0.2,0.1l0,0l0,0l0,0.1l0.1,0l0,0l0-0.1l0,0l0,0v0h0   l-0.1,0l0,0l0,0l0,0l0-0.1l0,0l0,0v-0.1l0,0l0,0l0,0l0,0l0,0l0,0v0l0,0l0,0l0.1-0.1l0.1,0l0.1-0.1v0l0,0l0,0v0l0,0l0,0h0l0,0l0.1,0   l0.1-0.1l0,0l-0.1-0.1l0-0.1l0,0.1l0.1,0l0,0.1l0,0l0,0l0.1,0.1l0,0l0-0.1l0.2-0.1h0l0.1,0l0.1,0v0l0.1,0l0,0h0.1l0.1-0.1l0,0h0   l0,0l0.1,0.1h0l0,0l0,0h-0.2l0,0l0,0.1l0,0l0,0l0,0l0,0l0,0l0,0v0l0,0v0l-0.1,0l-0.2,0l-0.1,0.1l0,0l-0.1,0.1l0,0.1l0.1,0.1v0l0,0   v0.1l0,0h0l0,0l0,0l0,0l-0.1,0.1l0,0v0l0,0l0.1,0h0.1l0,0l0,0.1l0,0.1v0l0.1,0h0.1v0h0l-0.1,0h0l0,0l0,0V35l0-0.1l0,0l0,0l0,0   l-0.1,0l-0.1,0.1l0,0.1h0v-0.1l0,0l0-0.1l0,0l0.1,0l0,0v-0.1l0,0l0-0.1l0,0l0,0l0,0l-0.1,0l-0.1,0L28,34.7l0,0.1l0.1,0l0,0l-0.2,0   L27.8,35l-0.1,0h0l0,0.1l0,0l0,0l0,0.1l0,0l-0.1,0l0.1,0h0l0,0v-0.1l0,0l0,0l0,0h0l0,0h0l-0.1-0.1h-0.1l0,0h0l0-0.1L27.1,35l0,0   L27,35l0,0l0,0l0-0.1L27,34.9l0,0.1l0,0.1l0,0.4l0,0v-0.1l0,0l0.1,0.1l-0.1,0l0,0l0.2,0.2l0,0l-0.1,0.1l0,0v0l-0.1,0l0,0l-0.1,0   l0,0.8l0,0l0,0l0-0.2l0.2,0.1l0,0.1l0,0.1l0,0l0.1,0l0,0.1l0,0l-0.1,0.1l-0.1,0h0l0-0.1l0,0l0-0.2l0,0.7l0,0.1l-0.1,0.1l0,0.1   l-0.1,0.1l0,0H27l0.2,0.2l0,0l0-0.1l-0.1-0.1l0.1-0.1l0.1,0l0,0l0,0v0.1l0.3,0.2h0l0.1,0h0.1l0,0.1l0,0.4l0,0.1l-0.1,0.5l0.1,0v0.4   l0.2,0.2l0.1,0.2l0.1,0.1v0.2L28,40h-0.2l-0.1,0.2h0.2v0.3l0.1,0.1h0.1l-0.1,0.2H28v0.1L28,41l0.1,0.1h-0.3l-0.1-0.1l-0.2,0v0.1   l-0.1,0.1l0,0.7l-0.1-0.3l-0.1-0.1h-0.1v0.3l0.1,0.1l-0.1,0l-0.2-0.1l0-0.2l-0.1-0.2l-0.1-0.1l-0.9,0.1l-0.1,0.1v0.1l-0.1,0.1   l0.1,0.2l0.1,0.1h0.1l0.1,0.1l-0.2,0.1l-0.1-0.1l-0.1,0l0,0l0,0l0-0.1l0,0l0,0L25.4,42v0l0,0v0l0-0.1l0,0l-0.1,0l0,0h0l0,0l-0.1,0   l-0.1,0l-0.3,0l-0.1,0l0,0l0,0l0,0h-0.1v0h0l0,0h0l0,0l0,0l0,0h0l0,0l0,0l0,0v0h-0.1l0,0v0l0,0h-0.2L23.8,42l-0.3,0.2l0,0.1l0,0   l0,0v0h0v0l0,0.1l0,0l0,0l0,0.1l0,0.1l0,0l0,0l0,0l0.1,0.1l0,0l0,0h0l0.1,0h0.1l0,0l0.1,0l0,0v0h0l0,0h0l0,0L23.7,43l0,0.2l0,0   l0.1,0.1l0.2,0l0.1,0h0l0,0l0,0h0l0,0L24,43.3l0,0.1l0,0l0,0.1l-0.1,0.1l-0.1,0l0,0l0,0l-0.1,0l-0.1,0.1l0,0v0L23.6,44l0,0h0l0,0h0   l0,0l0,0l0,0h0l-0.1-0.1h-0.1L23,43.8H23v0l-0.1,0l0,0l0.1,0l0.1-0.1l0,0l0,0v0l0,0l0,0v0l0,0v-0.1l0,0l0-0.1l0,0l0.2,0l0,0h0l0,0   v0l0,0h0l0,0v0L23.3,43l-0.1,0l0,0l0,0l0-0.2L23,42.7l0,0l-0.1,0l-0.1,0.1v0l0,0l-0.1,0l0,0h0l0-0.1l0-0.1l-0.1,0l-0.1,0l-0.2,0.9   l0.1,0l-0.1,0l0,0l-0.2,0.5l-0.3,0.3v0l0,0l0.1,0.1h0l0.1,0.1h-0.1l-0.1-0.1h0l-0.1-0.1h0l0,0l0,0.2l0,0h0l0.1,0.1h0l0.1,0.1H22   l0,0l0.2,0.1h0.1l0.1-0.1l0,0h0l0,0h0l0,0l0,0l0,0h0v0l0,0v0l0,0h-0.1l0,0h0l0,0h-0.1l0,0l-0.1,0L22.3,45h0L22.2,45l-0.2,0   l-0.1-0.1v0l0,0l-0.1-0.1h0l0,0h0l0,0l0,0h-0.1l0,0h-0.1l0,0v0.1h0l0,0l0,0l0.1,0l0,0v0l0,0l0,0l0,0h0.1l0,0h0l0.1,0.1H22l0,0l0,0   l0,0l-0.1,0l0,0l-0.2,0l0,0h-0.1v0l0,0h0l0,0h0v0l0,0l0,0h-0.1l0,0h0l0,0l0,0l0,0l0,0l0.1,0.1l0,0l0,0h0.1l0,0h0l0,0h0l0,0v0.1l0,0   l0,0l-0.2,0l-0.2-0.2h-0.1l0,0h-0.2l0,0l-0.1-0.1l0,0l0.1,0.1h0l0,0l0.2,0l0,0v0l0,0l-0.2,0l0,0h-0.1l0,0h0l0,0l0,0l-0.1,0l0,0l0,0   l0,0v0l0.1,0.1l0.1,0l0,0v0l0.1,0.1h0l0.1,0l0.1,0l0,0l0,0l0,0l0,0l0,0l0,0l0,0h0l0.1,0l0.2,0l0,0l0,0l0,0v0h0l0,0h-0.1l0,0l0,0   l0,0h0l-0.1-0.1l-0.1,0v0.1l-0.1,0l0,0h-0.1l0,0h-0.1l0,0l-0.1-0.1H21l-0.1-0.1h0l-0.1,0l0,0l-0.1,0.1h-0.2l-0.1,0.1h-0.1l-0.4,0.3   l-0.3,0L19.5,46l-0.8,0.1l-0.2,0.1l-0.8,0l-0.4,0.3l0,0.5l-0.1,0.1v0.3l0.2,0.2l-0.5,0.5h-0.5L16,48.5h-0.2l-0.6,0.4V49l0.1,0.1   h0.2v0.2h-0.2l-0.1,0.2l-1.7,0l-0.2-0.2L13,48.9h-0.9l0.1,0.4l0.2,0.2V50l0.2,0.2v0.3l0.1,0.2l-0.1,0.1l-1.1,0l-0.2-0.2l-0.2,0.1   L11,51l-0.6-0.6h-0.2l-0.2,0.2l-0.2-0.2l-0.2,0.2l-1.2,0l-0.4,0.4v0.3h0.4l0,0.6H8.1v0.2h0.2l0.3,0.2v0.2h0.9l0.3,0.3h0.3l0.2,0.3   h0.9l0.1,0.4l0.4,0l0.2,0.1l-0.3,0.3l0,0.3l0.6,0.8l0.7,0.2l0.2,0.2l-0.2,0.4l0.2,0.8l0.5,0.5l0,0.5l-0.2-0.2L13.5,57l-0.2-0.2   h-0.2l-0.2,2.7l-0.1,0.1l0,0.4l-0.6,0.8h-1L11,60.6l-0.2-0.1h-0.2l-0.2,0.2l-0.4,0l-0.2-0.2l-5.3-0.1L3.8,60l-0.7,0l-0.3,0.1v0.4   l-0.2,0.1l-1.1,0.2l-0.4,0.4v0.1l0.2,0.2l0.3,0.2l0.1,0.1l0,1.6l-0.1,0.1l0.1,0.2v0.2l0.1,0.3v0.3L2,64.7l0.1,0.5l-0.1,0.1l0,0.4   l-0.1,0.3v0.4l-0.2,0.2l0,0.5l-0.2,0.2l-0.1,0.2l-0.2,0.2l0,0.1L1,68l-0.1,0.7L1,68.8V69l0.2,0l0.4-0.4v0.1l-0.3,0.4v0.2l0.6,0   l0.1-0.1l-0.1,0.1l0.1,0.1l-0.1,0.2l0,1.1l0.1,0.2v0.2l-0.3,0.3l0.1,0.3l0.1-0.1l0.7-0.1l0.4,0.1h0.5l0.1-0.1l0.4-0.2l0-0.1h0.8   l0.4,0.4L5.4,72l0.1,0.1v0.4l0.1,0.2l0.1,0.1l0.1,0.5l0.4,0.3l0.2,0l0.1,0.1h0.2l0.2-0.1l0.2-0.3v-0.2l0.3-0.2l0.6,0l0.2-0.3h0.1   l0.1-0.1h0.8l0.2-0.1l0.8,0l0.1,0.1h0.4l0.3,0.1l0.3-0.3h0.1l0.4,0.1l0.4-0.4l0.1-0.5l0.6-0.4h0.5l0.2-0.1v-0.1l0.3-0.3l0.2-0.7   l0.6-0.6h0.1l0.4-0.3l-0.6-0.7l0-0.1l0.1-0.9l1.1-1.4l0.4-0.3l-0.1-0.1v-0.3l0.2-0.1l0.1-0.2l0.7-0.3h0.2l0.1-0.1h0.2l0.4-0.4h0.2   l0.2-0.2l0.1-0.1l0-0.4l0.1-0.1v-0.2l0.1-0.1v-0.6l-0.1,0l0-0.4l0-0.1l0.1-0.4l0.3-0.3l0.2-0.1l0.3,0l0.8-0.5l0.2,0v0.1l0,0.1l0,0   l0.3,0l0.1,0l0.2,0l0.1,0.1l0.1,0l0.1,0.1h0.1l0,0l0.4-0.1l0-0.1l0,0h0l0.2,0.1v0l-0.1,0l-0.2,0V61l0.5,0.1l0,0v0l0,0.1l0,0l0.1,0   h0l0.3,0.1h0.1l0,0.1l0.3,0.1l0.1,0l0.3,0l0,0l0.1-0.1l0.7-0.1l0.1-0.2l0.1-0.1l0.4-0.2l0-0.1l0,0l0.1,0l0.1-0.1l0.2-0.1v0l0.1-0.1   l0.2,0l0.1-0.1l0.3,0l0.1-0.1l0.7-0.2l0.1-0.3l0.4-0.3v-0.2l0.5-0.5h0.6l0.4,0.3h0.5l1,0.5l0.2,0.9l0.3,0.4v0.4l0.4,0.4l0.1,0.2   l2.9,2.4l0.4,0l0.3,0.3h0.7l1.1,1.1h0.4l0.8,1l0.4,0.2h0.2l0.2,0.2v0.5l0.4,0.1v0.7l0.2,0.2l-0.2,0.2L38.8,69h-0.2v0.4l-0.1,0.3   L38.1,70v0.2l0.8,0.1l0.7-0.9V69l0.3-0.3l0.7-0.2l-0.1-0.7L39.7,67v-0.4l0.6-0.6h0.2l0.2,0.2l0.6-0.1l0.3,0.3v0.3h0.6l0.1-0.4   l0-0.2l-2.3-1.4H40l-1.4-0.6l0.2-0.4l0.3-0.3l-0.2-0.3l-1.7-0.1l-0.3-0.3l-0.7-0.3l-0.4-0.4l-0.1-1l-0.8-1.1l-0.4-0.2h-0.2l-0.9-1   v-0.6l0.2-0.2v-0.3l-0.2-0.2l-0.1-0.3l-0.2-0.1l0.3-0.3l0.2,0.1l0.2,0l0.2-0.1h0.1l-0.1-0.1l0.1-0.1l0.4-0.1l0.1,0.1l0.1,0l0,0.1   h0.1l0.1,0.2l0.2,0.1l0,0.1l0,0.1l0.1,0.1l0,0.3l0.5,0.8l0.1-0.1l0-0.1l0-0.1l0.1-0.1l0,0l0.2-0.4v-0.2l0.1-0.1h0.1l0.3,0.1   l0.1,0.1l0.3,0.2l0,0.1l0.1,0.1l0.1,0.6l0.5,0.6l0,0.2l0.3,0.3l0.1,0.1l0.8,0.5l0,0.2l0.1,0.1l0.2,0.1l0.1-0.1l0.2-0.1l1.1,0.2   l2.2,1.5l0.1,0.2l1.2,1.3V64l-0.1,0.2v0.6l-0.1,0.4V66l1,0.9l0.1,0.2l0.1,0.1l0.1,0.4l0.5,0.4l0.2,0l0.4,0.1l0.1,0.1l0,0.1   l-0.6-0.2l0.1,0.3l0.2,0.2l0.1,0.4l0,0.1l0.1,0.1l0.1,0.1l0.1,0l0.1-0.1l0-0.1l0.1,0.2l0.2,0l0.1-0.1l0.2,0l0.1-0.1h0.1l0,0   l0.3-0.1l1,0.3l0.7,0.5l0,0.1L49,70l-0.2,0l-0.1,0.1l0,0.1l0,0.1l-0.1,0l-0.5-0.3l0-0.1l-0.5-0.2l-0.1-0.1l-0.3-0.1L47,69.5l0,0.1   l-0.1,0l-0.1,0l-0.2,0l-0.1-0.1l-0.1,0.2l-0.1,0l0,0.1L46.3,70L46,70l0,0.1l0.3,0.3l0,0.1l0.2,0.2l0.3,0.4l-0.1,0.2l-0.2,0.1l0,0.1   l0,0.1l0.1,0.1l0.1,0.1l0,0.1l0,0.1l0,0.1l0,0.1l0.4,0l0-0.1l0-0.2l0-0.1l0.1-0.1l0.1,0l0.1,0l0,0.1V72l0.4,0.5l-0.1,0.2l0.1,0.1   l0.1,0.1l0-0.2l0-0.1l0.2-0.4l0.1,0l0.2,0l0,0.2l0.1,0.1l0.1,0l0.1,0.1l0,0.1l0.1,0.1l0.1,0.1l0.1,0L49,73l-0.2-0.4l0.1-0.2   L48.4,71l0-0.1l0.1,0l0.2,0.1l0.1,0l0.1,0.1l0,0.1l0,0.1l0.2-0.1l0.1-0.1l0,0l0.2,0l0.1,0l0-0.1L49.5,71l0-0.1l-0.1,0l-0.1,0   l-0.1-0.1L49,70.5l-0.1-0.1l0-0.1l0.5-0.1l0.4,0.1l0.2,0.2l0.1,0l0.2,0.3l0.1,0l0.1-0.1l0-0.1l-0.1-0.6l0.1-0.1l0-0.1l-0.1-0.1   l-0.2,0l-0.7-0.5l0-0.1L49.4,69l-0.1,0l0,0l-0.1,0L49,68.8l-0.6-0.2l-0.1-0.1l0-0.1l0.5,0.1l0.1,0l0.1-0.2L49,68.2l0-0.1l-0.2-0.2   l0-0.1l0.2-0.1l0,0l0.1,0l0.2,0.2l0,0.1l0.1,0.1l0.2,0l0-0.1l-1.1-1.7l0.2-0.2l0-0.2l0.1-0.1h0.1l0.2-0.2l0.2,0.5l0.1,0.1h0.1   l0.1,0.2v0.1l0.2,0.3l0.1-0.1v-0.2l-0.1-0.1v-0.1l0.1-0.1l0.4,0.4h0.2l0.1-0.1l-0.3-0.3l-0.1-0.2l0.1-0.1l0.4,0.4l0.1-0.1v-0.2   l-0.6-0.6l0-0.3l0.8,0l0.3-0.3H52l0.1-0.1h0.3l0.1-0.1l0.3,0.2l0.2-0.1h0.4l0.1,0.1h0.3v0.1l0.3-0.3l0.1-0.6l0.2-0.1l0.1-0.2   l-0.3-0.7l0.2-0.2l0.9-0.3h0.2l0.1,0.1l0.9,0.1l0.1-0.1l-0.2-0.3l-0.3-0.3l-0.1-0.2l0.9-1.7l0.3,0.1l0.1-0.1l0.2-1.8l0.3-0.3l0-0.2   l0-0.2l0.1-0.1v-0.2l0.2,0l0,0.2l0.7-0.1l0.2-0.2l-0.1-0.3l0.2-0.2l0-0.1l-0.1-0.3v-0.4h0.1l0.4-0.3l0.2,0l0.4-0.5h0.1l0.3-0.6   l0.2-0.2l0.8-0.1l0.2,0.1h0.2l0.2-0.5l0-0.3l-0.3-0.3l0.1-0.2v0.2l0.4,0.3l0,0.7l0.1,0.1l0.4,0l0.2-0.1h0.2l-0.3,0.3h-0.6L62.5,55   l0,0.2l-0.1,0.1l2.7,0.4l0.1,0.2L65,56.1h-0.2l-1.3,0.9h0.2l1.1,0.5l0.1,0.2l-0.1,0.6l-0.2,0.2l0.3,0.1l0.1,0.2h0.5l0.8-0.5   l0.1-0.2l0.6-0.1l0.5-0.3l0-0.1l0.4,0.1l0.2,0.1h0.5l0.4-0.2h0.2l0.2-0.3V57L69,56.8l-0.2,0.1l-0.6,0L67.8,57L67.6,57l-0.7-1.1   v-0.2l0.3-0.1l0.2-0.3l0.5-0.1l0.4-0.4l0.9-0.1l0.1-0.1l0.5,0.1l2.1-0.8l0-0.6l0.2-0.2l0.3-0.1l0.4-0.3l1.3,0l0-0.2l0.1-0.2   l-0.1-0.8L74.1,51l0-0.2l0.2-0.4l-0.1-0.3l0.3-0.2l0.1-0.3l0-0.3L74.5,49.1L74.5,49.1z"/>
	<polygon fill="#8c8c8c" points="22.9,24 23.3,24.2 23.5,24.2 23.3,24.3 22.9,24.3 22.6,24.6 25.6,24.5 26,24.6 26.1,24.8 25.9,25 25.7,25    25.5,25.2 25.3,25 23.4,24.9 22.8,25.5 22.9,25.6 23.1,25.6 23.1,25.7 23.4,25.8 23.2,26 23.3,26.1 23.5,26.2 23.3,26.4 23.1,26.4    22.7,26.6 22.7,26.8 22.8,27 22.9,26.8 23.4,26.8 23.6,27.1 23.9,27 24.4,26.5 24.6,26.5 24.9,26.6 24.8,26.7 24.7,26.7 24.6,26.6    24.3,26.9 24.3,27.1 23.9,27.2 23.5,27.6 23.7,27.8 23.9,27.8 24.2,27.8 24.1,28 23.9,28 23.4,28.4 23.2,28.4 22.8,28.6 22.9,28.7    22.9,28.9 23.3,28.9 23.6,28.8 23.6,28.6 24.2,28.5 24.4,28.3 24.5,28.4 24.3,28.6 24.2,28.9 24.3,29 24.1,29 24,29.2 23.9,29.5    24.2,29.5 24.3,29.4 24.5,29.4 24.1,29.8 23.8,29.8 23.5,29.5 23.5,29.8 23.3,30 23.3,30.2 23.7,30.6 23.9,31 24.3,31 24.3,31.1    24.7,31.3 24.8,31.2 25.1,31.2 25.1,31.3 24.9,31.6 25.4,31.6 25.6,31.7 26.6,31.7 26.7,31.6 26.9,31.5 27,31.4 27.4,31.4    27.7,31.1 27.8,31.1 28.1,30.8 28.3,30.8 28.5,30.7 28.7,30.2 28.9,29.9 29.1,29.9 29.3,29.7 29.3,29.5 29.4,29.4 29.6,29.6    29.7,29.6 29.9,29.4 30.1,29.4 30.2,29.2 30.5,28.8 30.3,28.6 30.3,28.4 30.6,28.3 30.6,27.8 30.8,27.6 30.9,27.7 30.9,28    30.8,28.2 30.8,28.4 30.9,28.6 30.9,29.1 31.6,29.2 31.6,29.7 31.6,29.7 31.8,30.9 31.9,31 32.1,31.1 32.2,31.2 32.5,31.5    32.5,32.2 32.7,32.6 32.7,32.7 33.1,33.2 33.2,33.6 33.3,33.8 33.3,33.9 33.8,34.5 33.9,34.5 34.1,34.7 34.1,35 34,35.1 33.8,35.5    33.9,36.4 34.1,36.5 34.3,36.7 34.5,37.3 34.7,37.4 35.1,37.4 35.2,37.3 36.2,37.2 36.2,36.9 36.3,36.8 36.3,36.7 36.1,36.5    36.2,36.4 36.4,36.3 36.4,36.2 36.5,36 36.8,36 37.1,35.7 37.2,35.7 37.3,35.7 38.2,35.7 38.2,35.8 38.5,36 38.7,35.7 38.8,35.5    38.9,35.3 38.9,35 39.2,34.8 39.2,34.7 39.5,34.3 39.5,34.1 39.6,34 39.6,33.2 39.7,33.2 39.7,33 39.7,32.2 39.6,32 39.8,32    39.8,31.4 39.9,31.1 39.8,30.9 39.8,30.9 39.9,30.7 40,30.6 39.8,30.5 40.2,30.4 40.4,30.2 40.6,30.2 41,30.1 41.2,29.8 41.2,29.6    41.3,29.6 41.4,29.7 41.5,29.8 41.5,29.9 42.3,29.1 42,28.9 42,28.7 42.1,28.7 42.1,28.9 42.4,29.1 42.6,29 42.5,28.8 42.3,28.7    42.3,28.6 42.6,28.3 42.9,28.2 43.2,27.7 42.9,27.3 42.7,27.2 42.3,26.7 42.3,26.6 41.9,26.4 41.7,26.2 41.6,26.2 41,25.9    40.6,25.8 40.6,24.6 40.5,24.5 40.5,23.6 40.8,23.3 40.8,23.1 40.9,22.9 40.9,22.8 41.1,22.6 41.1,22.4 41.2,22.2 40.9,22.1    41,21.6 41.5,21.6 41.6,21.5 41.7,20.8 41.6,20.6 41.9,20.9 42.2,20.8 42.5,20.5 42.7,20.4 42.7,20.2 43,20 43.4,19.9 44.3,19.2    44.5,19.2 44.7,19 44.9,19 45.2,18.7 45.6,18.6 45.8,18.6 45.9,18.4 46.1,18.2 46.1,18.1 47,17 47,16.9 47,16.8 46.6,16.5    46.5,16.2 46.6,16.2 46.7,16 47,15.7 47.1,15.3 47.2,15.2 47.2,15 47.2,14.9 47.3,14.8 47.5,14.8 47.7,14.6 47.7,14.5 47.8,14.3    48,14.3 48.2,14.3 48.2,14.1 48.3,13.9 48.7,13.9 48.7,13.8 48.9,13.7 49,13.7 49.1,13.8 49.3,13.9 51.4,13.8 51.6,14 51.8,14    51.9,14.2 52.1,14.1 52.3,14.4 52.6,14.5 52.6,14.9 52.6,15.2 52.6,15.5 52.8,15.7 52.8,15.8 52.7,15.9 52.7,16.1 51.9,16.1    51.8,16.2 51.7,16.2 50.1,18 49.9,18.1 49.8,18.1 49.8,18.3 49.7,18.4 49.5,18.4 49.3,18.5 49.1,18.9 48.7,19 48.6,18.9 48.3,19.3    48.3,19.8 48.2,19.8 48,19.9 47.2,19.9 47,20.1 47,20.6 46.8,20.7 46.6,21 46.6,21.9 46.7,22 46.7,22.2 46.8,22.3 46.8,23.1    47,23.2 47.2,23.8 47.1,23.9 47.1,24.3 47,24.4 47,24.7 46.9,24.8 46.8,25.6 46.9,25.8 47,25.9 47.3,26.1 47.5,26.3 47.9,26.3    48,26.4 48.5,26.5 48.6,26.6 48.5,26.9 49.1,26.8 49.1,26.9 49.2,27 49.2,27 49.5,27.4 51.6,27.3 51.6,27.2 51.9,26.9 52.4,27    53.3,26.6 53.4,26.6 53.7,26.6 53.8,26.6 53.9,26.6 54.5,26.3 54.7,26.4 56.5,26.3 61.6,21.5 61.9,20.8 61.9,20.5 59.6,18.8    60.1,18.4 60.4,17.9 60.4,17.7 59.6,17 59.6,16.7 59.7,16.6 59.7,16.4 59.2,16.1 59,15.7 59.3,15.5 59.3,15.3 59.2,15.2 59.4,14.1    59.8,14.1 59.8,13.6 58.3,11.1 58.3,11 59.5,9.4 59.6,9.2 59.6,9.1 58.4,8 58.1,7.9 57.6,7.4 57.4,7.1 57.4,6.8 57.7,6.6 57.7,6    57.6,5.9 57.7,5.8 57.9,5.8 58,5.5 58.3,5.5 58.7,5.2 58.8,4.8 59,4.8 59.1,4.7 59.5,4.7 60,4.2 60.2,4 60.5,4.3 60.9,4.3 61,4.2    60.9,3.9 61.1,3.7 60.9,3.5 60.7,3.6 60.4,3.7 60.2,3.5 60,3.6 59.3,3.6 59.3,3.4 59,3.1 58.8,3.1 58.6,2.9 58.4,2.9 58,2.7    58.3,2.6 58.6,2.8 60,2.8 60.5,2.3 60.8,2.3 61.1,2.2 61.2,2.2 61,2 61,1.7 60.3,1.5 59.8,1.1 58.7,1.1 58.8,0.9 58.6,0.8    57.9,0.7 57.5,1.1 57.5,1.2 57.1,2 57.1,1.8 56.9,1.7 56.9,1.4 56.8,1.4 57,1.2 56.9,1.1 56.6,1.1 56.6,1 57,0.7 57.4,0.6    57.3,0.5 57.3,0.3 57.1,0.3 57.1,0.1 56.8,0.1 56.6,0.2 56.1,0.2 55.9,0.3 55.8,0.4 55.8,0.6 55.9,0.9 55.5,1.2 55.4,1.5 55.4,1.6    55.2,1.6 55.2,1.7 55,1.6 54.7,1.9 54.5,1.9 54.5,1.2 54.7,1.1 54.7,0.4 54.6,0.6 54.4,0.6 54.2,0.8 54,0.8 52.9,1.9 52.8,2.5    52.7,2.6 52.4,2.6 52.3,2.5 52.3,2.3 52.4,2.2 52.4,1.8 52.5,1.7 52.4,1.6 52.6,1.5 53.2,0.9 53.3,0.9 53.5,0.5 54,0.5 53.5,0    53.1,0 53,0.3 53.2,0.4 52.9,0.5 52.7,0.6 52.6,0.6 52.3,0.5 52.3,0.4 52.1,0.4 51.6,0.6 51.6,0.7 51.5,1 51.6,1 51.6,1.2    51.1,1.2 51.1,1.7 50.4,1.7 50.3,1.9 50.2,2.2 49.6,2.5 49.6,2.7 49.8,2.8 49.4,2.9 49.1,2.7 49.1,2.4 49,2.3 49,2 48.6,2.2    48.5,2.3 48.2,2.5 47.8,2.3 47.6,2.4 47.3,2.3 46.8,2.3 46.8,2.4 47.1,2.5 47.4,2.8 47.7,2.9 47.7,3 47.5,3.3 47.5,3.2 47.1,3.2    46.9,3 46.6,3.1 46.6,3.5 46.3,3.5 46.1,3.3 45.7,3.8 45.9,4.1 45.7,4.1 44.7,4.7 45,4.5 45,4.3 45.2,4.1 45.2,3.9 45.4,3.8    45.4,3.3 44.6,3.7 44.5,3.9 44.6,4 44.3,4.4 44.1,4.5 44.1,4.4 44.3,3.7 43.5,3.7 43.4,3.8 43.3,4.1 43.3,4.4 43.6,4.7 43.4,4.7    43.1,4.4 43,4.2 43,3.7 42.6,3.7 42.3,3.9 42.3,4.1 42.6,4.4 42.6,4.5 42.9,4.8 42.6,4.8 42.5,4.9 41.9,4.4 41.6,4.4 41.6,4.2    41.8,4 41.2,4.2 41,4.4 40.8,4.4 40.5,4.7 40.2,4.8 40.5,5.1 40.3,5.3 40.5,5.5 40.9,5.5 41.1,5.2 41.4,5.3 41.2,5.6 41.1,5.9    41.3,6 41.3,6.2 41.1,6.4 40.6,6.2 40.4,6.4 40,6.6 39.9,6.8 40,7 40.6,7.1 40.7,7 41.2,7 40.9,7.3 40.8,7.3 40.7,7.4 40.7,7.5    40.5,7.3 40.1,7.3 39.6,7.2 39.6,7.4 39.8,7.6 39.3,8.1 39.4,8.4 39.1,8.4 39,8.3 39,7.8 38.7,7.8 38.3,8.1 38.6,8.5 38.4,8.6    38.1,8.6 37.8,8.4 37.5,8.5 37.5,8.6 37.4,8.8 37.1,9 37.6,9.1 37.7,8.9 38.2,9 38.4,9.1 38.3,9.2 37.9,9.2 37.8,9.3 38.1,9.6    38.3,9.6 38.4,9.8 37.7,9.7 37.4,9.6 37.3,9.7 36.6,9.9 37,10.1 38.5,10.2 37.8,10.5 37.7,10.5 37.4,10.3 36.8,10.3 36.4,10.7    36,10.8 35.4,11.3 35.5,11.4 35,11.8 35.1,12 34.9,12.2 34.6,12.2 34.6,12.4 34.8,12.6 35.7,12.6 35.3,12.9 34.4,13 34.6,13.6    34.5,13.6 34.2,13.6 33.9,13.7 33.9,13.8 33.8,14 33.6,14 33.5,14.1 33.6,14.4 33.7,14.4 33.8,14.7 33.7,14.7 33.5,14.6 33.3,14.6    33.1,14.9 33.3,15.1 33.5,15.1 33.5,15.2 33.7,15.2 34.1,15.1 33.6,15.6 32.5,15.7 32.5,16 32.6,16.2 32.3,16.2 32.1,16.4    32.1,16.6 32.4,16.8 32.2,17 32.1,17.2 31.9,17.2 31.6,17 31.1,17 31.1,17.2 30.8,17.2 30.7,17.5 30.5,17.7 30.3,17.7 30.1,17.9    30.2,18.1 30.2,18.3 30,18.3 29.6,18.6 29.8,18.8 29.7,18.9 29.8,19.2 30,19.2 30.1,19.1 30.3,19.1 30.5,19 30.6,19 30.9,18.9    31,18.9 31.3,18.7 31,18.4 31.3,18.4 31.8,18 32.1,18 32,18.2 31.7,18.3 31.5,18.5 31.7,18.7 31.7,18.8 31.3,18.8 31.1,19.1    31.1,19.2 31.2,19.3 31.2,19.5 30.2,19.4 30.1,19.6 30,19.8 29.7,19.8 29.7,19.5 29.4,19.2 29.2,19.1 28.5,19.8 28.5,19.5    28.5,19.6 28,19.6 27.8,19.9 27.8,20.2 27.6,20.2 27.5,20.4 28,20.8 27.6,20.7 27.4,20.7 27.2,20.5 27,20.5 27.5,21 27.5,21.2    27.2,20.9 26.9,20.9 26.7,20.7 26.7,20.5 26.5,20.5 26.4,20.6 25.5,20.6 25.5,20.8 25.7,21 26,21 26.4,21.2 26.1,21.5 25.7,21.5    25.3,21.3 24.7,21.4 25,21.7 25.3,21.7 25.8,22.3 25.6,22.4 25.6,22.2 24.6,21.7 24.8,21.9 24.6,21.9 24.6,22.3 24.4,22.1    24.1,22.1 23.9,22.3 24.3,22.6 23.4,22.6 23.1,22.9 23.7,23.1 23.8,23.3 22.6,23.4 22.6,23.6  "/>
	<polygon fill="#8c8c8c" points="65,13.4 65,11.6 65,11.6  "/>
	<path fill="#8c8c8c" d="M65,11.6l0.1-0.1L65,11.6z"/>
	<polygon fill="#8c8c8c" points="81.5,43.1 81.7,43 81.5,43.1  "/>
	<polygon fill="#8c8c8c" points="79.2,10.2 79.1,10.3 79.2,10.5 79.4,10.7 79.4,10.9 79.3,11 79.1,11.1 77.8,10.9 77.7,11 77.7,11.1 77.8,11.2    78.1,11.4 78.4,11.2 78.5,11.2 78.7,11.3 79.4,11.3 79.6,11.3 79.7,11.3 79.8,11.4 79.9,11.4 80.3,11.7 80.3,11.7 80.5,11.4    80.6,11.3 80.7,11.1 81.2,11.3 81.3,11.3 81.6,11.1 82.2,11.1 82.4,11.2 82.6,11.2 82.9,11 82.9,10.9 82.8,10.8 82.5,10.5    82.4,10.5 82,10.4 82,10.3 81.7,10.3 81.6,10.1 81.6,10 81.5,10 80.3,9.7 80.1,9.8 80,9.9 79.6,9.9 79.3,9.7 79,9.6 78.9,9.7    78.7,9.8 78.7,9.8 78.7,10 78.9,10  "/>
	<polygon fill="#8c8c8c" points="69.2,7.9 69.2,8 69.6,7.8 70.2,7.6 70.7,7.2 71.5,7.3 71.5,7.5 71.3,7.6 71.9,7.7 72,7.8 72.1,7.9 72.5,7.8    72.6,7.8 73.1,8.2 73.7,8.4 74,8.3 74.1,8.4 74.2,8.6 74.2,8.8 74.5,9.1 75.1,9.1 75.4,9.2 75.5,9.3 75.4,9.5 75.1,9.5 74.9,9.7    75.1,9.9 75.4,9.8 75.6,9.7 77,9.8 77.1,9.8 77.3,9.6 77.8,9.6 77.9,9.5 77.8,9.3 77.6,9.3 77.5,9.1 77,9 76.7,9 76.5,8.8    76.5,8.7 76,8.6 75.8,8.4 75.5,8.3 75.3,8.1 75.2,8.1 75.2,8.1 74.6,7.9 74.4,7.8 73.7,7.5 73.5,7.5 73.1,7.1 72.6,7 72.4,6.9    71.8,6.8 71.6,6.9 71.2,6.8 69.3,7.4 69.1,7.7 69.2,7.8  "/>
</g>
</svg>