<?xml version="1.0" encoding="UTF-8"?>
<!-- Generator: Adobe Illustrator 24.0.0, SVG Export Plug-In . SVG Version: 6.00 Build 0)  -->
<svg version="1.1" id="Layer_1" xmlns="http://www.w3.org/2000/svg" xmlnsXlink="http://www.w3.org/1999/xlink" x="0px" y="0px" viewBox="0 0 65.3 78" style="enable-background:new 0 0 65.3 78;" xmlSpace="preserve">
<path fill="#8c8c8c" d="M0,9.8l0.7-0.2l0.3,0.1L0.8,9.8L0,9.8z M1.4,10.4H1l-0.2-0.2h0.4l0.3-0.4L1.6,10L1.4,10.4z M56.2,65.2l1.7,0.2l-0.4,0.4  h-1.4L56.2,65.2z M41.4,62.4h-0.5l0.2-0.5l0.4,0.1L41.4,62.4z M47,66.1l-1.1,0.1l-0.1-0.3l-0.3-0.3l1.2-0.2l0.7,0.3L47,66.1z   M48.2,65.3c-0.1-0.1-0.1-0.2-0.2-0.3c0.1,0,0.2,0,0.3-0.1C48.3,65.1,48.2,65.2,48.2,65.3z M50.7,65.5l0.5-0.2L50.9,65l-0.2-0.6  L50,64.2l0.7-0.4l0.9,0.3l0.7-0.2l1.1,0.1l0.6,0.6l0.7-0.1l0.5,0.6l-0.2,0.5l-0.3-0.2l-0.9-0.2l-0.5,0.4l-0.3-0.2l-0.3,0.1l-0.5,0.6  l-0.5-0.6l-0.7,0l-0.9,0L49.7,66l-0.5-0.5l0.6-0.2L50.7,65.5z M45.6,58.4l0.3,0.5l0.2,0.7l0.2,0.1v0.6l-0.4-0.4l0.1-0.4l-0.4-0.3  L45.6,58.4L45.6,58.4z M45.5,61.6l0.9,0.6l0.3,0.4l1.3,0.1l0.2,0.5h0.5l0.7,0.5l-1.4,0.4h-1.7l0.3-0.6l-0.1-0.3h-0.7l-0.5-0.4v-0.5  h-1.1l-0.7-0.7H42l0.2-0.5h-1.2l-0.5,0.4h-0.4l-0.2,0.3L39.4,62l0.3-0.9l1-0.5h1.4l1.9,0.3l0.6,0.5L45.5,61.6z M40.9,5.7l0.4-0.1  l0.4,0.6v0.4l-0.8-0.1L40.9,5.7L40.9,5.7z M41.8,6.8l-0.2,0.3l-0.4-0.3H41.8z M40.8,7.3h0.7l0.1,0.5l0.5,0l0.3,0.4l-0.2,0.3l0.5,0.5  h0.7l0.8-0.4L45.1,9l0.2,0.3l-0.5,0.6h-0.7l-0.9-0.1l-0.7-0.1V9.5l-0.5,0.2l-0.5-0.4l0.3-0.7l0-0.5l0-0.3l-0.4,0.2l-0.5-0.5  L40.8,7.3z M40.4,11.4L40,11.8l-0.3-0.3l0.1-0.7l0.2-0.6l0.6-0.4l0.5,0.3h0.6l0.1,0.2l-0.9,0.9l-0.7-0.1L40.4,11.4z M40.2,9.1  l0.4-0.4L41,8.7l0.1,0.4l-0.2,0.4h-0.4L40.2,9.1z M39.7,5.4V4.8l0.4-0.1l0.1,0.5l0.4,0.6l-0.1,0.6h-0.3l-0.1-0.5l-0.5-0.1L39.7,5.4z   M38.8,7.1L39,7.9l0.3-0.4l0.3,0.4l0.1-0.4l0.6,0.2V8l-0.4,0.3L40,8.5L39.6,9L39,8.8l0.4-0.6h-0.6l-0.3-0.7L38.8,7.1z M38.6,9.8  l0.9,0.1l0.1,0.3L39,10.8l0.3,0.4L39,11.9h-0.6l-0.1,0.3l-0.4-0.1L38,11.5l-0.6-0.8l0.2-0.4l0.5,0.5l0.3-0.4L38,10.1L38.6,9.8z   M37.2,5.5l1,0.1l-0.4,0.5L37.2,6L37.2,5.5z M37.1,7.6L37,7l0.4-0.3l0.3,0.1l-0.2,0.8L38,7.7l-0.7,0.8l-0.7-0.4l-0.4,0.2l-1,0  L34.8,8l0.9-0.2l-0.2-0.3l-0.6,0.1L34.5,7l0.8,0.1l0.1-0.5l0.6-0.2l0.4,0.4l0,0.6l0.4,0.3L37.1,7.6z M34.6,5.6l1-0.3l0.9,0.3  l-0.7,0.7l-0.2-0.4L35,6.3l-0.4-0.1l-0.5,0.3l-0.4-0.5L34.6,5.6z M30,8.5l1.7-0.9L32,7l1.1,0.2l0.1,0.6l0.7,0.1l0,1l0.2,0.1  l-0.3,0.5l0.3-0.1l0.5,0.5l-0.3,0.3l0.4,0.2l0.3-0.6l0.4,0.6l-0.3,0.9l0.3,0.1l0.3-0.9L36,9.7l0.4,0.2l-0.1-0.4l0.6-0.2l0.4,0.5  l-0.4,0.4L36.4,10l0.1,0.7l-0.5,1.5l0.7,0.9l-0.2,0.4l-0.6-0.3l0.2,0.5l-0.1,0.3l-0.9-0.1l-0.6-0.2v-0.5l-0.8,0.3l-1.2,0.1l-1-0.4  l0.1-0.6L31,12.1v-0.7l0.8-0.1l0.9,0.6l0.4-0.1l-0.5-0.6l-1.2-0.3l-0.1-0.4l1.1,0l-0.5-0.1l-0.4-0.6l1.1-1l-1.9,1.1L30,9.6l0.2-0.4  L30,8.5z M12,2.7V2.3l0.3-0.2l-0.1,0.3l0.1,0.3l-0.2,0.7l-0.4-0.2L12,2.7z M8.5,5.7l0.5,0.2L8.7,6.4L8.4,6.3L8.5,5.7z M9.1,13.1H8.4  l-0.6-0.3l0.3-0.4l0.6-0.2l0.1,0.4h0.3l0.3,0.2L9.1,13.1z M9.8,12.6l-0.4,0v-0.3h0.4V12.6z M13.2,24.2l0.1-2.1l0.4-0.2l0.3,0.4  l-0.6,0.6l0.1,0.7L13.2,24.2z M58.5,37l-0.7-0.2v-0.6l0.2-0.7h0.5l0,0.7l0.2-0.1l0.3,0.2L58.5,37z M55.1,33.1L54.9,33h1.2l1,0.6  h-0.9L55.1,33.1z M63.2,33.6l0.2-0.2l-0.2,0.8l0.4-0.3l0.2,1.1l-0.5,0.2v-0.4l-0.4,0.4l-0.1-0.2L63.2,33.6z M40.6,76l-0.1-0.2  l-0.1,0.2L40,75.8v-0.6l-0.9-0.5L39,74.3l-0.3-0.2l0.1,0.4l-0.7-0.3l-0.2-0.5l0.1-0.5l-2.1-2.5l-3.4-1.1l-2.3-2.4l-0.8-0.2l-1,0.5  h-0.8L26.1,67l-0.8-0.5l-0.8-0.3l-1.3-0.8l-0.7-0.7l-0.5-0.1l-0.8-0.4l-0.5-0.8l-0.9-0.7l-0.4-1.1h0.4l-0.1-0.4l0.3-0.6l-0.2-0.5  l-0.1-0.8l-0.6-1l-0.1-0.5l-0.8-0.9l-0.1-0.5L17.8,56l-0.4-0.3l-0.2-0.5l0.3-0.3l-0.1-0.3l-0.4-0.1l0-0.4L16.8,54l-0.2-0.3l0-0.6  l-0.3-0.2l-0.7-1.5l-0.3-1.7l0.2-0.6l-0.3-0.1l-0.1-0.4l-0.4,0l-0.3-0.4l-0.3,0.5l0,1.3l0.5,1l0,0.4l0.4,0.8l-0.1,0.6l0.2,0.1  l0.1,0.4l0.4,0.9l0.1,0.8l0.2,0.5l0.1,1.4l0.4,0.1l0.4,0.6l0,0.6l-0.5,0.2l-0.2-0.8l-1.2-1.7l0.2-0.5l0-0.7l-0.5-0.6l-0.1-0.3H14  l-0.8-0.8l-0.3-0.6l1,0.4l-0.2-0.4l0.2-0.5l-0.3-1L13,50.3l-0.3-3.9l-0.6-1.1l-0.3-0.2l-0.2-0.5l-0.8-0.5l0-0.4l-0.4-1.7l0.3-0.4  l-0.2-0.3l0-0.7l0.3,0.1v-0.5h-0.2l-0.3-1.1l0.3-1.8l0.5-0.9l0.4-1.6l0.9-1L14,31l0.4-2.1L14,27.8l-0.3-1.5L14,26l0.4,0.7l0.6,0.7  l-0.6-1.1l-0.1-0.8l0.4-0.6l-0.2-0.4l0.2-0.6l-0.3-0.5l0.1-0.6l0.4-0.2l0.2-0.3l0.1-0.7l0.1-0.6L15,20.9l-0.5,0.6L14.4,21l0.4-1  l0-0.9l-0.5,0.2l0.5-0.9l0.3-0.9l0.2-0.1l-0.1-0.2l-0.1-1.9l0.3-0.2L14.8,15l0-0.6L14,13.7l0.1-0.4L14,13l0.1-0.7l-0.3-0.4l-0.4-0.1  L13,12.2l-0.4,0.3l-0.3-0.3l-1.5,0.1l0.1-0.4l0.5,0.1l0-0.4l0.4-0.2l0.5-0.3h0.6l0.3,0.3l0.1-0.4l-0.4-0.1h-0.9l-0.7,0.3l-0.6,0  L10,11.1l0.1,0.3L10,11.7l-1.8,0.1l-0.4-0.1l-0.3,0.1l-0.6,0.1l-0.5-0.2l-0.6,0.1l-0.4-0.3l-0.1,0.1l-0.8-0.1l-0.2-0.4l-0.5,0.1  l-0.1-0.3l-0.4,0l-0.2,0.2l-0.3-0.3l-0.5-0.3l0.4-0.2l0.6,0.1v0.2l0.6,0v0.2l0.3-0.1l0.5,0l0.4,0.3l-0.2,0.2l0.2,0.1l0.3-0.3H6  l0.4,0.3l0.2-0.1l1-0.1l0.9-0.5l0.6-0.1l-0.5-0.2l0.1-0.3L8.1,10l0.3-0.5L8.3,9L7.7,8.8l0.6-0.5l0.4-0.1l0.4-0.5L8.8,7.6L8.7,7.2  l0.6-0.9l0.4,0.6l0.2-0.2L9.7,6.3l0.1-0.6l0.4-0.4l1.1-0.3l0.3,0.1l0.9-0.3L12.6,5l-0.1,0.3l0.1,0.2l0.6,0.1l0.1,0.3l0.4,0l0.8-0.7  l0.4,0.1l0.2-0.2l-0.4-0.3l-0.4,0l0-0.4l-0.3-0.3l-0.1-0.5l0.5-0.5l0.4,0V2.8L15,2.5l0.8,0.4L16.4,3l0.1,0.3l-0.7,0.3L16,4.2  l0.4,0.1l0.8-0.7l-0.1-0.3l0.6-0.5l0.6-0.9l0.5-0.2l0.6,0.6l1.5-0.1l0.5,0.4l-0.1,0.3l0.5-0.3l0.4,0.5l0.7,0.1l0,0.5l-0.2,0.3  L23,3.9l-0.4,0.7l0.2,0.1L23.1,5l0.1,0.7L23.5,6v0.4L24,6.8v0.4l0.2,0.5l0.1,0l-0.2,0.4l0.6,1.3l0.4-0.3l2-0.1l0.4,0.2L27,9.5  l0.5,0.2l0.6-0.4l0.1,0.4l-0.3,0.5l0,0.5l0.9-0.5L28.4,11l0.8-0.3l0.9,1.6l0.6,0.1l0.3,0.3l0.1,0.5l-0.9,0.2l1,0.6h1.1l0.5,1  l-0.2,0.5l0.4-0.1l0.2-1l1-0.2l-1-0.1l0.2-0.3l1.1-0.1l-0.2,0.6l1.1,0.9l1.6,0.1l0-0.5h0.5l-0.5-0.6l0.7-0.7l0.7,0.6l0.1,0.6  l-0.8,0.2l0.3,0.3l-0.4,0.4l0.5,0.5l0-0.6l0.3-0.1l0.6-0.4L39,14.7l0.2-0.5l-0.5-0.5l-0.2-0.3l0.3-0.2l-0.1-0.4l1-0.9l0.5,0.4V13  l0.4,0.5l-0.4,0.6l0.5,0.2l-0.1,1.2l0.4-0.8l0.5,0.1l0.2,0.6l-0.3,0.3l0.4,0.8l0.5-0.4l0.3-0.7l0.4-0.1l-0.1-0.8l0.4-0.2l1.2,0.6  l0.1,0.6l-0.4,0.2l0.4,1l-0.5,0.5l-0.9,0.4l-0.4-0.3L42,17.2l0.1,0.4l-0.8,0.6l0.2,0.4l-1,0.9l-1.5,0.2l0.3,0.3l-0.3,0.4l-0.8,0.3  l-1.5,1.4l-0.3,1.1l-0.2,0.5l0.2,0.4l0.7,0l0.2,1.4L37,26l1.3-0.2l1.5,1.2l0.8,0.3l0.6,0.6l1.8,0.2v2.2l1,1.5l0.5,0.4l0.2-0.4  l0.4,0.4l0-0.6l0.2-0.5L45,30.5l0.1-0.9l-0.3-1l1.1-0.6l0.6-1.1l-0.2-1.3l-0.9-1l0.6-0.8l-0.3-1.1l0.2-0.6l-0.3-0.6l0.3-0.5l0.7,0.2  l1,0.1l0.3-0.3l1,0.7l0.4,0.6l1,0.1l0,0.9l0.2,0.9l0.7,0.2l0.5,0.6l0.9-0.6l0.1-0.5l0.2-1.1l2.6,2.8l-0.2,0.7l1.3,0.8l0.2,0.6  l0.5-0.4l0.4,0.3l0.9,0.1l-0.5,0.5l0.6-0.2l0.3,0.5l0.3-0.2l0.4,0.2l0.3,0.8l0.4,0.4l-0.5,0.9l0.8-0.1l-0.3,1l-0.1,0.9l0.5-0.5  l0.4,0.1L61,32.5l0.5,0.1l0.9-0.3l0.2,0.4l-0.1,0.6l0.6-0.2v0.5L62.8,34l-0.6,1.2h-0.6l0.5-0.7l-0.5,0.1l-0.1-0.4l-0.6,0.3l-1,0.2  l-0.8,0.2v-0.5l0.3-0.5l-0.2-0.5l0.2-0.3v-0.9l0.6-1.5l-1.2,0.4l-0.4,0.7l-0.5,0.5l-2.7,0.1l-1.5,0.3l-0.4,0.8l-0.4,0l-0.7,0.7  l-1.5,2.1l0.5-0.4l0.8-1.1l1.8-1.2l1.3-0.1l0.5,0.7l-0.6,0.6l-0.8,0l0.3,0.3l0.7-0.2l0.1,0.8l0.9,1l0.6,0.1L58,37l0.3,0.2l-1.2,0.8  l-0.9,0.2l-0.8,1.2l-0.6-0.3l-0.1-0.6l1-1l-0.1-0.3l-0.7,0.5l-0.6,0.1l-0.3,0.5l-2.2,1.2l-0.4,1.4l0.6,0.7L51,42l-1-0.1l-0.7,0.4  l1.2-0.1L49,42.8l0.1,0.5l-0.7,1.1L47.8,44l0.4,1l-0.4,0.5l-0.4,0.9l-0.1-0.4l0.2-0.5l-0.3-0.3l-0.1-1.2L46.8,45l0.3,0.3l0.1,0.6  l-0.3,0.4l0.5,0.1l0.1,0.5l0.2,0.7l-0.8,0.5l0.3,0.3l0,0.3l-0.7,0.1l-0.6,0.7l-0.5,0.1l-0.6,0.5l-1.1,1.1l-0.8,1l0,1.3l0.4,1  l0.1,0.6l0.5,1.4l0,1.2l-0.5,0.9h-0.5l-0.1-0.5l-0.5-0.5L41.5,56l0.1-1.4l-1.1-1.1l-1,0.4l-0.6-0.7l-0.9-0.3L37,53.1L35.7,53  l-0.3,0.5l0.5,0.5l-0.2,0.2l-0.6-0.4L34.2,54l-0.7-0.7l-0.5,0.2L32,53.2L31,53.4l-1.2,0.8l-1.1,0.6l-0.5,1l0.1,0.9l-0.7,1.9  l-0.3,1.6l0.3,1.7l0.7,1.6l0.3,1.1l0.7,0.1l0.5,0.6l0.7-0.1l1.9-0.3l0.8-0.3l0.6-0.6l0.4-1.5l1.7-0.5l1.6,0l0.1,0.8l-0.7,0.7  l-0.1,0.6l-0.4,1.5l-0.3,0.1l-0.1,2l0.2,0.5l2.4-0.1l1.9,0.6l0.4,0.9l-0.8,3.3l1.6,2.5l0.4-0.1l0.4,0.4l1.9-0.9l1.5,0.3l1.3,1.4  L46.3,78l-1-1.6l0.4-0.3L45.4,76l-0.7-0.7l-0.6,0.2L43.8,76l-0.4,0.1l-0.1,0.2l0.4,0.7l-0.8,0.3l-0.1-0.6l-0.2-0.2l-0.1,0.5  l-0.6-0.6l-0.5-0.1l-0.3,0L40.6,76z M45.8,16.2l0.8-0.5l0.3,0.3l0.2,0.4l-0.6,0.3L45.8,16.2z M44,30.3v0.4l-0.7-0.4l0.1-0.3L44,30.3  z M42.9,18.3l0.3,0.5l0.7,0.3l-0.2,0.5l0.4-0.1l0.4,0.1l-0.2,0.5l-0.8-0.1v-0.3l-0.5,0l-0.5,0.4l-0.7,0.3v-0.6h-0.6l0.4-0.4l0.4-1.5  h0.5l0,0.5L42.9,18.3z M43.8,20.9l-0.5,0.6l-0.5-0.2l0.1-0.5l0.7-0.1L43.8,20.9z M44.6,21.9l0.1-0.6l0.4,0.2L45,21.9  C45,21.9,44.6,21.9,44.6,21.9z M46.3,11.5h-0.9L44.8,12l0.8,0.2l0-0.5l0.9-0.1l0.8,0.9l0.7-0.2l0.6,0.4l1.3,0.8l0.5,1.1l-0.6,0.1  l0.2,0.5l0.7,0.4L52,16l0.2,0.5h1.1l-0.4,1.3l-0.4,0.9l-0.8-0.9l-0.9-0.6l-0.3,0.5l0.8,1L52,19l0.4,1.2L52,20.6l-0.8-0.5l-0.9-0.3  l0.3,0.6l1.1,0.4l0.4,0.7l-1.6-0.2l-0.4-0.6h-0.9l-0.5-0.7l-1-0.8l-0.6,0.1l-0.4,0.3l-0.9,0.1v-1.2l1,0l0.6,0l0.6-0.3l-0.4-0.5  l0.6-0.4l0.2-0.6l-0.6-0.9l-1.1-0.9l-1-0.8l-0.7,0.7l-1.1-0.6l-1.1,0l-0.5-0.4l-0.7-0.5l0.8-0.2l-0.2-0.3h-0.6v-0.8l0.8-1.1l1.1-0.3  l-0.5,0.5l-0.1,0.5l0.2,0.7l0.4-0.3l-0.2-0.6l0.4-0.5l1.1-0.2l1.3,0.1L46.3,11.5z M46.8,5.7l-0.8,0.2l0.4,0.7l-0.3,0.4l-0.7,0.5  L45.8,8l-0.6,0.5l-0.3-0.1L44.7,8L44,8.3l-0.8-0.1L42.5,8l0.2-0.5h0.7L43.2,7l0.5-0.1L44,7.3l0.2-0.2V6.4l-0.7,0.3l-0.1-0.4  l-0.7,0.3L42,5.8l0.5-0.2l-0.6-0.4l0.7-1.1l0.6-0.3l0.4,0.8L44,5l0.3-0.5l-0.6-0.2l-0.1-0.9L44.7,3l0.5,0.2l0.4-0.5l1.5-0.4l1.4,0.5  l-0.9,1.1l0.7-0.1l-0.9,1.2L46.8,5.7z M65.3,10.2l-1.3,2l-0.2,0.5l0.3,0.9l-0.2,0.8l-0.8,0.4v0.4l-0.4,0.2v0.5l-0.2,0.1l0.3,0.4  l0.5,0.8v0.5l-0.3,0.6l0.3,0.2l0.6,1.5l-0.1,0.4l0.2,0.3l-0.7,0.4l-0.8-1l-0.6,0.4l-0.7,0.3l-0.7-1l-0.8-0.2v-0.5l-0.7-0.2l-0.4-0.7  l0.3-0.4l-0.3-0.3L58.4,18c-1-0.8-0.9-0.6-1.8-1.8l0.2-0.4l-0.6-0.3v-0.6l0.6,0l0.1-0.4l-0.3-0.6l0-0.9l-0.4,0l-0.9,0l0.7,0.3  l-0.4,0.4l-0.7-0.3l-0.2-0.5l0.4-0.1l-0.4-0.4h0.7l0.7,0L55,11.5h-0.6l-0.2,0.6l-0.4-0.3v-0.7l-0.2-0.8l-0.8-0.9l-1-0.5l-0.4-0.5  L51,8.2h-1.3l-0.6,0.4h-0.7L48,7.9l-0.6-0.3h1l0.4-0.3l0-0.4l-0.4,0.3l-0.8-0.1l-0.4-0.4L47.8,6l0.7-0.5l0.3,0.2l-0.2-0.7L48.1,5  l-0.2-0.4l0.7-0.8h0.4l0-0.4l0.7-0.7l0.4,0.3l0.5-0.3l-0.4-0.3h0.7l-0.2-0.7l0.6-0.3l-0.2-0.5L52,0.3h0.4l-0.2,0.4l0.5-0.4l0.9,0  l0,0.4l-0.6,0.5l0.5,0l0.3-0.1l0.2,0.3L54,0.8l0.7,0.4L55,0.7l-0.2-0.4L55.2,0l0.7,0.5l-0.2,0.8l0.5-0.3l0.2,0.1l-0.2,0.5l0.5,0.2  L58,3.2L58.5,3l0.2,0.4l0.6-0.3l0.6,0.3l-0.7,0.6l0.4,0.3l0.6-0.3l0.2,0.3L61,4.2l-0.1,0.8L61.4,5l0.7-0.2l-0.4,0.8l0.8-0.1  l-0.1,0.9l-0.7-0.1l0.1,0.7l0.8,0.1l0.2-0.6l0.5,0.2l0.2,0.5l1.3,0.5L65,8.4l-0.6,0.2l-1.1-0.3l0.2,0.4L64,8.9l-0.2,0.9L64.5,9  l0.9-0.1L65.3,10.2C65.3,10.2,65.3,10.2,65.3,10.2z"/>
</svg>