<?xml version="1.0" encoding="UTF-8"?>
<!-- Generator: Adobe Illustrator 24.0.0, SVG Export Plug-In . SVG Version: 6.00 Build 0)  -->
<svg version="1.1" id="Layer_1" xmlns="http://www.w3.org/2000/svg" xmlnsXlink="http://www.w3.org/1999/xlink" x="0px" y="0px" viewBox="0 0 100 100" style="enable-background:new 0 0 100 100;" xmlSpace="preserve">
<path fill="#8c8c8c" d="M36.6,92.6C36.6,92.6,36.5,92.7,36.6,92.6C36.5,92.6,36.5,92.6,36.6,92.6c-0.2-0.1-0.4-0.3-0.6-0.3l0,0c-0.1,0,0,0-0.2,0  v0.1c-0.2-0.1-0.4-0.2-0.5-0.4c0,0,0,0,0-0.1c0.4,0.1,0.7,0.3,1,0.4v-0.1c0.1,0,0.1,0.1,0.2,0.2v-0.1c0.1,0.1,0.2,0.2,0.4,0.2  C36.9,92.7,36.6,92.6,36.6,92.6"/>
<path fill="#8c8c8c" d="M36.1,91.9c0,0,0-0.1,0-0.2C36.1,91.7,36,91.8,36.1,91.9c-0.1-0.1,0-0.2,0-0.2V91.9C36.1,91.3,36.4,91.6,36.1,91.9"/>
<path fill="#8c8c8c" d="M35.8,91.5c0,0-0.2-0.2-0.1-0.2h0.1c0,0-0.1,0-0.1-0.1h0.1c-0.1,0-0.2,0-0.2-0.1c0.1-0.1,0.3,0.1,0.4,0.2  C35.9,91.4,35.9,91.5,35.8,91.5"/>
<path fill="#8c8c8c" d="M35.3,91.5c-0.1,0-0.2-0.1-0.2-0.1C35.3,91.3,35.4,91.4,35.3,91.5"/>
<path fill="#8c8c8c" d="M36.1,91.2c-0.2-0.2-0.3-0.1-0.4-0.4C36,90.9,36.2,91.1,36.1,91.2"/>
<path fill="#8c8c8c" d="M35.1,91.2c-0.2-0.2,0.1-0.3-0.1-0.6C35.2,90.6,35.1,91,35.1,91.2"/>
<path fill="#8c8c8c" d="M35.7,90.9c-0.2,0-0.3-0.1-0.3-0.3C35.5,90.7,35.8,90.8,35.7,90.9"/>
<path fill="#8c8c8c" d="M34.9,91c0-0.1,0-0.2,0-0.2C35.1,90.7,34.9,91,34.9,91"/>
<path fill="#8c8c8c" d="M35.8,90.7c-0.2-0.1-0.2-0.2-0.1-0.3C35.8,90.3,35.8,90.7,35.8,90.7"/>
<path fill="#8c8c8c" d="M34.9,90.4l0.1-0.2L34.9,90.4c0-0.3,0.2-0.4,0.3-0.2c0,0-0.1,0.1,0,0.1C35.1,90.2,35.1,90.2,34.9,90.4"/>
<path fill="#8c8c8c" d="M35,89.9L35,89.9C35,89.8,35,89.8,35,89.9c-0.1,0-0.1-0.1-0.2-0.2v-0.1c0.1,0,0.2,0,0.3,0c0-0.2,0.1-0.1-0.1-0.2  c0.2-0.1,0.3,0.3,0.3,0.4C35.2,89.7,35.1,89.8,35,89.9"/>
<path fill="#8c8c8c" d="M35,89.6c-0.1,0-0.1,0-0.2,0v-0.1h0.1c0,0-0.1,0-0.1-0.1c0,0,0,0,0.1,0c0,0,0,0,0-0.1C34.9,89.5,35,89.6,35,89.6"/>
<path fill="#8c8c8c" d="M35.4,89.5c-0.1,0-0.5-0.1-0.3-0.4c-0.1,0-0.1,0-0.2,0C35.1,88.9,35.3,89.4,35.4,89.5"/>
<path fill="#8c8c8c" d="M34.4,89.6c-0.1-0.1-0.1-0.1-0.2-0.2l0.1-0.1l-0.1-0.1c0.1,0,0.2,0,0.3,0c-0.1,0.1,0,0.1-0.2,0.1  C34.4,89.4,34.4,89.5,34.4,89.6"/>
<path fill="#8c8c8c" d="M34.5,88.9c-0.1,0.1-0.1,0.2-0.2,0.2c0,0,0-0.1,0.1-0.2L34.3,89l0,0l-0.1,0.1c0-0.2,0-0.2,0.1-0.3c0,0,0,0.2,0.1,0  c-0.2,0-0.2,0-0.2-0.2l0.3,0.1c0,0,0,0.1-0.1,0.2c0.1,0,0.1-0.1,0.2-0.1C34.8,88.8,34.7,88.8,34.5,88.9"/>
<path fill="#8c8c8c" d="M34.7,88.6C34.7,88.5,34.7,88.4,34.7,88.6c-0.1-0.1-0.1-0.1-0.1-0.2c0.1-0.1,0-0.2,0-0.3c-0.1,0,0-0.1,0-0.2  c-0.1,0,0-0.2,0-0.2l-0.1-0.1c0,0.1,0,0.1-0.1,0.2c0,0.1,0-0.1-0.1-0.1c0,0.1,0,0.2,0,0.3v-0.1c0,0,0,0.2,0,0.3  c-0.2-0.1-0.3-0.3-0.3-0.5c-0.3,0-0.1-0.2-0.1-0.3c0.1,0,0.1,0.1,0.2,0.1c-0.1-0.2,0,0,0-0.2c0.1,0.1,0.2,0.1,0.2,0.2  c0-0.1-0.1-0.6-0.1-0.6c-0.2,0,0,0-0.2-0.2c0,0,0.3-0.2,0.3-0.1s0,0.1,0,0.2l0.1-0.2c0.1,0,0.3,1.4,0.4,1.5c0,0.1,0,0,0,0.1h-0.1  C35,88.5,34.8,88.4,34.7,88.6"/>
<path fill="#8c8c8c" d="M34.3,88.4C34.3,88.4,34.2,88.4,34.3,88.4c-0.1-0.1-0.2-0.1-0.2-0.2c0,0-0.2,0.3-0.1,0C33.8,88,34.2,88.1,34.3,88.4"/>
<path fill="#8c8c8c" d="M34.4,87.6c-0.1-0.1-0.1-0.2-0.2-0.1c0,0,0,0,0.1,0h-0.1c0-0.1,0.2-0.1,0.2-0.2C34.4,87.4,34.4,87.5,34.4,87.6"/>
<path fill="#8c8c8c" d="M33.9,87.6c-0.2-0.1,0-0.2,0.1-0.4C34.1,87.2,34,87.4,33.9,87.6C33.9,87.5,33.9,87.6,33.9,87.6"/>
<path fill="#8c8c8c" d="M34,86.9c-0.1-0.1-0.2-0.3-0.2-0.4c-0.1,0-0.1,0.1-0.2,0.1c0.1,0,0.1-0.1,0.2-0.1c-0.1,0-0.3-0.1-0.2-0.2  c0.1,0,0.1-0.1,0.2-0.1C33.9,86.1,34.1,86.7,34,86.9"/>
<path fill="#8c8c8c" d="M34.5,86.8c-0.4,0-0.3-0.4-0.2-0.2c0-0.2-0.1-0.3-0.1-0.5C34.4,86.2,34.7,86.7,34.5,86.8"/>
<path fill="#8c8c8c" d="M33.8,83c0,0,0-0.3,0.1-0.2C34,82.9,33.8,82.9,33.8,83"/>
<path fill="#8c8c8c" d="M41.4,95.3c-0.2-0.2-0.3-0.4-0.6-0.3c-0.1,0.1-0.3-0.3-0.6-0.2c0.1,0.1,0.2,0.2,0.3,0.3C40.4,95,40.4,95,40.3,95  c-0.1,0-0.2,0-0.3-0.1l0.1-0.1c0,0-0.1,0-0.2,0c0-0.1,0,0,0-0.1h-0.1c0.1-0.1,0.3-0.3,0.4,0c0.2-0.2,0.8-0.5,1-0.2L41,94.6  c0,0.2,0.2,0.1,0.4,0.2c-0.1,0-0.2,0.1-0.3,0.1C41.2,94.8,41.6,95,41.4,95.3"/>
<path fill="#8c8c8c" d="M41.8,95.5c-0.1,0-0.1-0.1-0.2,0C41.6,95.5,41.8,95.4,41.8,95.5C41.9,95.5,41.9,95.4,41.8,95.5"/>
<path fill="#8c8c8c" d="M42.1,94.4c-0.1,0.7-1-0.2-1-0.2C41.4,94.3,41.8,94.3,42.1,94.4"/>
<path fill="#8c8c8c" d="M42,95.3c-0.1-0.1-0.2,0-0.2-0.2l0.1,0.1c0-0.1,0-0.1,0-0.2C42,95.2,42,95.3,42,95.3"/>
<path fill="#8c8c8c" d="M34,83c0,0.1-0.1-0.5,0.1-0.3c0,0.1,0,0.2,0.1,0.1C34.2,82.9,34.1,82.9,34,83"/>
<path fill="#8c8c8c" d="M34.8,82.9c-0.4-0.2,0.2-0.6,0-0.2C34.9,82.8,34.8,82.8,34.8,82.9"/>
<path fill="#8c8c8c" d="M34.3,82.7C34.3,82.3,34.8,82.6,34.3,82.7"/>
<path fill="#8c8c8c" d="M34.4,82.4c-0.4-0.2,0.1-0.2,0.2-0.1C34.6,82.4,34.4,82.4,34.4,82.4"/>
<path fill="#8c8c8c" d="M34,82.4c0-0.1-0.1-0.1-0.1-0.2C34,82,34,82.4,34,82.4"/>
<path fill="#8c8c8c" d="M34.6,82.3C33.6,82.2,34.7,81.7,34.6,82.3"/>
<path fill="#8c8c8c" d="M34,82c-0.3-0.2,0.6-0.2,0.2-0.1C34.2,81.9,34.1,82,34,82"/>
<path fill="#8c8c8c" d="M34.4,81.9L34.4,81.9c-0.1-0.1,0-0.1-0.1-0.2C34.5,81.5,34.4,81.9,34.4,81.9"/>
<path fill="#8c8c8c" d="M35.3,81.5c-0.1,0.1-0.5,0.5-0.5,0.2c0.1,0,0.1-0.2,0.1-0.3c0-0.1,0-0.1-0.1-0.1c0,0,0.1-0.1,0.1-0.2c0,0,0.1,0,0.1,0.1  c0-0.1,0-0.1-0.1-0.1C35,81.2,35,81,35,81.2c0-0.1,0.2,0,0.2,0c0,0.1-0.1,0.1-0.2,0.1C35.2,81.4,35.3,81.4,35.3,81.5"/>
<path fill="#8c8c8c" d="M34,81.7c-0.4-0.2,0.1-0.4,0.3-0.2C34.2,81.6,34.1,81.6,34,81.7"/>
<path fill="#8c8c8c" d="M34.5,81.6L34.5,81.6C34.5,81.2,34.7,81.5,34.5,81.6"/>
<path fill="#8c8c8c" d="M33.6,79.4c0.1-0.4,0-1.3,0-1.6l0.2,0.1c0,0.1,0.2,0,0.4,0s0,0.9,0,0.9c-0.1,0-0.1,0-0.2,0c-0.1,0.2,0.5,0.5,0.1,0.5  c0.1,0.1,0.1,0.1,0.2,0.2c0,0,0,0,0,0.1c-0.1,0-0.2,0-0.3,0l0.1,0.3C34,80,33.4,79.8,33.6,79.4"/>
<path fill="#8c8c8c" d="M39.4,94.8c0-0.1,0-0.1-0.1-0.2c-0.1,0.1-0.4,0-0.3-0.1c0.2,0,0.4,0,0.5-0.1c-0.2,0.1-0.2,0.2-0.2,0.2c0.1,0,0.2,0,0.3,0  C39.6,94.5,39.4,94.8,39.4,94.8"/>
<path fill="#8c8c8c" d="M34.9,83.9c-0.1,0-0.1,0.1-0.2,0.1c-0.1,0,0.2-0.6-0.1-0.5c-0.1,0.1-0.2,0.2-0.1,0c-0.1,0.1,0.2,0,0-0.3l-0.1,0.2  c0.1-0.4-0.4-0.5-0.3-0.1c0-0.3-0.3-0.2-0.5-0.1c0,0,0,0-0.1,0c-0.1,0.2,0,0.2,0,0.3c0.1,0,0.2-0.1,0.2-0.3c0,0.1,0.1,0.4-0.1,0.4  c0,0.2-0.4-0.1-0.1,0.2c-0.2-0.1-0.6,0.3-0.5,0.5c0.1,0.4,0.2,0,0.3,0.2c0-0.1,0.1-0.4,0.3-0.6c-0.1,0.5,0.3,0.5,0.5,0.4  c0,0-0.1,0-0.1-0.1c0.3,0,0.5,0.1,0.6,0.4c0.1,0.2,0.1,0.2,0,0.2c-0.1,0.1-0.1,0.1,0,0.2c-0.3-0.5-0.4,0.6,0,0.3  c0.1,0.1-0.3,0.2-0.3,0.2c0.1-0.1,0.1-0.2-0.1-0.2l-0.1,0.2c0.2,0.2,0.9,0,0.8-0.3c0,0.3,0.3,0.5,0.6,0.6c-0.1,0-0.3,0-0.4-0.1  c0,0.2,0.3,0.4,0.4,0.2c-0.1,0.4-0.5,0.1-0.7,0c-0.1,0-0.6,0-0.6,0c0.2,0.1,0.5,0.5,0.7,0.5c0,0.1-0.5,0.4-0.1,0.5  c-0.4,0-0.3,0.9,0,1c0.2-0.2,0.2-0.9,0.5-0.7c-0.3,0-0.1,0.3-0.2,0.3c-0.1,0.2,0.3,0.4,0.1,0.4c-0.1-0.1-0.2,0-0.2,0.1s0,0.1,0,0.2  c0.1,0.1,0.3,0.1,0.4,0.1c0,0.1-0.1,0.1,0,0.2c-0.1,0-0.3-0.1-0.4-0.1c-0.1,0.1,0.4,0.4,0.5,0.4c-0.2,0-0.6-0.3-0.7,0  c0,0.1,0.3,0.2,0.4,0.1c0,0.2,0.1,0.2,0.3,0.1c0,0.1,0,0.2-0.1,0.2v0.1c-0.1-0.1-0.1-0.1-0.2-0.1c0.4,0.6,0.3,0.1,0.6-0.2  c-0.1,0.2-0.1,0.3,0.1,0.3c-0.2,0.1-0.4,0.1-0.2,0.4c-0.1-0.1-0.4-0.1-0.3,0.1l0.1-0.1c0,0.2,0,0.2,0.1,0.3v-0.1  c0.1,0.2,0.2,0.2,0.2,0c0.1,0.1,0.2,0.5,0.3,0.6c0,0-0.3-0.3-0.3-0.2c0,0.3,0.2,0.2,0.3,0.5c0.1-0.2,0-0.1,0.2-0.1  c-0.1,0.4,0.2,0.3,0.3,0.5c0,0,0.1-0.4,0.2-0.4c-0.3,0.2-0.1-0.1-0.3-0.2c0.1,0,0.8,0.2,0.8,0.3c0,0-0.1,0-0.2,0  c0.2,0.4,0.4,0.6-0.1,0.7c0.4-0.3-0.1-0.5-0.1-0.5c-0.1,0,0.1,0.2,0.1,0.2c0,0.1-0.1,0.1-0.2,0.1c0.1-0.3-0.4-0.1-0.4,0  c-0.1-0.1-0.1-0.1-0.2-0.2c0.1,0.2,0.2,0.7,0.3,0.8l-0.1,0.1c0.1,0,0.2-0.1,0.2-0.2l0.1,0.1c0.2,0.1-0.3-0.4,0.3-0.2  c-0.1,0-0.1,0-0.2,0c0.3,0-0.2,0.1,0,0.3c-0.1,0-0.2,0-0.3,0l0.3,0.1c-0.1,0.1-0.1,0.1-0.2,0.2c0.1,0.1,0.2,0.2,0.3,0.1h-0.1  c0.2-0.1,0.3-0.3,0.3-0.6L36.9,92c0-0.3,0.2-0.2,0.5-0.3c-0.1,0.2,0,0,0,0.2c0,0,0.6-0.3,0.8-0.1c-0.1-0.1-0.9,0.3-1,0.4  c0-0.1-0.4,0.3,0.1,0.4c-0.1,0.1-0.1,0,0,0.2c-0.1-0.1-0.4-0.1-0.5-0.1c0.1,0.1,0.3,0.2,0.5,0.3v-0.1c0.1,0.1,0.2,0.1,0.4,0.1  c-0.1-0.1-0.2-0.2-0.3-0.2c0.2,0,0.1-0.1,0.1-0.2c0,0,0.2,0,0.3,0c0-0.1-0.3-0.1-0.3-0.1c0.2-0.1,0.3,0,0.5-0.1s0.3-0.4,0.5-0.4  c0.4,0.1-0.6,0.9-0.7,0.9c0.1-0.1,0.1-0.2-0.1-0.2c-0.2,0,0.5,0.7,0.8,0.6s0.3-0.6,0.3-0.9c0-0.6-0.2-0.5,0.4-0.8  c0.4-0.2,1-0.6,1.5-0.3c0.1-0.5-0.7-1.1-1.1-0.9c0.4-0.2,0.5,0.1,0.5-0.4c0-0.2-0.2-0.3-0.3-0.5c-0.1-0.6,0.9-1,0.2-1.6  c0.2,0.2,0.4,0.6,0.8,0.3c0.3-0.2,0.1-0.8,0.2-1c0.2-0.5,1-1.6,1.5-1.8c-0.1-0.3-0.4-0.2-0.6-0.1c0.3-0.1,0.7-0.4,0.6-0.7  c-0.1-0.4-0.7-0.4-1.1-0.5c-1.1-0.4-0.8-1.7,0-2.3c0.3-0.2,0.8-0.1,1-0.3l0.3-0.7c0.1-0.4-0.1-0.7,0-1.1c0.1-0.5,0.7-0.5,0.9-0.9  c-0.4,0.1-0.9-0.8-0.4-0.6c0.3,0.1,0.4,0.5,0.7,0.5c0.6,0,0.5-1-0.3-0.8c0,0.1,0.2,0.1,0.2,0.2c-0.1,0.2-0.3,0.1-0.4,0.1  c0-0.3-0.2-0.1-0.4-0.3c-0.2-0.1-0.1-0.2-0.2-0.5c0-0.2-0.1-1.1,0.1-1.2c0.3-0.3,1.7,0.6,2.3,0.3c0.6-0.3,0.3-0.6,0.3-1  s0.3-1,0.2-1.3s-0.7-0.5,0-0.7c0.3-0.1,0.8,0.2,1.2,0.2c1.1,0,2.5-0.4,3.4-1c0.5-0.4,1.9-1.6,1.2-2.4c-0.1-0.2-0.3,0-0.5-0.3  c-0.2-0.2-0.1-0.4-0.1-0.6c0-0.6,0.1-0.7-0.5-1.1C50,68,49.7,68,49.6,67.4c0-0.1,0.1-0.4,0.1-0.6c0-0.3-0.2-0.6,0.1-0.8  c-0.1,0.1,0,0.7,0,0.8c0.1,0.4,0.2,0.7,0.6,0.8c0.4,0.2,0.9,0.2,1.3,0.4c0.4,0.2,0.8,0.3,1.3,0.3c1,0,1.4-0.3,2.1-1.1  c0.6-0.7,1.2-1.4,1.7-2.2c0.5-0.7,1.4-1,1.9-1.7c0.7-1,1.2-1.9,2.1-2.8c0.8-0.8,0.8-1.8,0.6-2.9c-0.1-0.8,0.3-1,0.7-1.4  c0,0-0.1,0.1,0,0c0,0-0.1,0.1,0,0c0-0.2,0.4-0.1,0.3-0.5c-0.1-0.3,2.1-1,2-1.4c0.1,0.4,1.4-0.3,1.6-0.3c0.5-0.2,1-0.3,1.5-0.5  c0.8-0.2,1.9,0.4,2.6-0.2c0,0,1.2-1.1,1.3-1.3c0.3-0.5,0.5-1,0.8-1.6c0.3-0.5,0.8-1.1,1.1-1.6c0.1-0.3,0.1-0.7,0.2-1.1  c0.1-0.3,0.4-0.5,0.5-0.7c0.6-1.1,1-4.6,0.9-5.7c0,0,0.2-0.2,0.3-0.4c0.1-0.1,0.1-0.3,0.2-0.4c-0.2,0-0.2-0.1-0.1-0.3  c0,0.4,0.2,0.1,0.2-0.1c0.1,0.2,0.3,0.4,0.1,0.6c0.9,0,1.7-2,1.7-2c0.3,0.1,0.5-0.7,0.4-0.8c0.1,0,0.2,0.1,0.1,0.3  c0.2-0.3,1.8-1.5,1.8-1.4c0.6-0.3,1.1-1.1,1.3-1.8c0.1-0.3,0-0.7,0.1-1c0-0.2,0.2-0.4,0.2-0.4s0,0.2,0,0c0-0.1,0,0.2,0,0  c0-0.1,0,0.2,0,0c0-0.1,0,0.2,0,0c0.1-0.6-0.2-1.9-0.4-2.3c-0.3-0.6-1.6-0.7-1.6-0.7c-1.2-0.3-1.8-1.5-2.7-2.2  C75.4,27.5,74.4,27,73,27c0,0.1-2.3-0.9-2.6-0.9c-0.2,0-1.2,0.1-1.2,0.3c0-0.2,0.2-0.3,0.3-0.4c-0.6-0.1-0.6,0.8-1.1,1.1  c0-0.2,0.4-1.3,0.5-1.1c-0.1-0.1-0.4-0.9-0.5-1.1c0-0.1-0.2,0-0.2-0.1c-0.2-0.3-0.3,0.1-0.5,0.2c-0.1,0,0-0.5,0-0.5  c-0.1,0-0.5,0-0.4,0c0-0.1,0-0.2-0.1-0.3c0,0.1-0.1,0.2-0.1,0.2c0.1,0.1-0.3-0.4-0.6-0.2c0.1-0.1,0.1-0.2,0.1-0.3  c-0.4,0.3-0.5-0.1-0.9-0.3c-0.6-0.4-1.6-0.3-2,0.3c0.1-0.2-0.3,0.6-0.2,0.8C63,24,62.2,25.4,62,25.8c0-0.1,0.2-1.1,0.3-1.1  c-0.2,0.1-0.6,0.3-0.8,0.3s-0.7-0.1-0.7-0.1c-0.1,0-0.2-0.1-0.3-0.1c-0.6-0.3,0.1-1.1-0.7-1c-0.4,0.1-0.7,0.4-1.1,0.6  c-0.4,0.1-0.7,0-1.1,0c0.4-0.2,0.9-0.2,1.2-0.5c0.4-0.3,0.5-0.9,0.8-1.3c0.4-0.4,0.9-0.8,1.3-1.2c0.3-0.2,0.5-0.4,0.5-0.8  c0.1-0.8-0.9-0.7-1.2-1.1l0.1,0.1c0,0-0.3-1.5-0.3-1.6c-0.2-0.7-0.4-1.2-1-1.6c-0.6-0.5-1.3-0.9-2-1.3c-0.2-0.1-0.4-0.3-0.6-0.3  c-0.7-0.2-1.3-0.3-1.9-0.3c-0.3,0-1.5-0.4-1.3,0.2c0-0.4-0.7-0.4-1-0.4c-0.6,0-0.5,0.3-0.9,0.6c0.1-0.2,0-1.4-0.4-1  c-0.1-0.3-0.5-0.7-0.8-0.7c-0.5,0-0.4,0.4-0.8,0.6c0.8-1.4-0.6-2.2-1.6-2.6C47.2,11,47,10.9,46.4,11c-0.3,0.1-1,0.3-1.2-0.1  c0.6,0,1.4-0.8,0.8-1.2c-0.2-0.1-0.6-0.3-0.8-0.4c-0.1-0.1-0.4-0.2-0.5-0.1C44.8,8.7,44.8,9,44.6,9c-0.1-0.2-0.1-0.4-0.3-0.5  c-0.1-0.1-0.3,0-0.3,0c-0.1,0-0.4-0.1-0.2-0.4C44,7.8,44.9,8,45.2,7.6c-0.8,0.1-1.6,0.1-2.4,0.1c-0.1,0-0.9,0.1-0.9,0.1  c0.1,0.2,0.6,0,0.8,0.1c-0.9,0.3-2.6,0.3-3.3-0.1S38,8,37.3,8c-0.3,0-0.6,0-0.8-0.2c-0.2-0.1-0.1-0.4-0.1-0.4  c-0.3-0.9-1.3-0.3-1.9-0.8c-0.2-0.2-0.2-0.7-0.4-0.8c-0.5-0.2-0.3,0.6-0.4,0.7c0.1,0.1-0.8,0.7-1.3,0.8c-0.7,0.2-0.5,0.4-0.2,1  c0.2,0.4,0.6,1.1,0,1.5c-0.2,0.1-0.8-0.1-0.9-0.5c-0.1,0,0.1-0.6,0.3-1c0.1-0.3,0-0.9,0.2-0.9c-0.9-0.5-0.2-0.6,0.3-0.9  c0.5-0.4,0.3-1-0.2-0.9c-0.2,0.1-0.4,0.4-0.4,0.2c-0.3,0-0.6,0.5-0.8,0.7c-0.5,0.3-1,0.6-1.6,0.6c-0.4,0.1-0.6,0-0.8,0.3  c-0.1,0.1-0.9,0.1-1.3,0.5c-0.3,0.2-0.4,0.6-0.7,0.9c0.1-0.1,0.1,0.8,0.1,0.7c0,0.1-0.2,0.2-0.3,0.3c-0.5,0.3-1.6,1.2-1.5,1.2  c-0.3-0.1-0.6-0.1-0.6-0.1c-0.3,0.3,0.2,0.7,0.3,0.9c-0.2,0-0.6,0.4-0.7,0.4c-0.3,0.2-0.3,0.4-0.2,0.8c0,0.1,0.7,1.1,0.4,1  c0,0.2,0.3,0.3,0.3,0.6c0,0.2-0.2,0.3-0.4,0.5c0.7,0,0,1.5,0.4,1.6c-0.2,0-0.3,0.3-0.2,0.4c0.1,0.1,0.3,0.1,0.2,0.2l0.1,0.1  c0,0-0.5,1.1-0.7,1.2c0,0,0.1,0.2-0.1,0.3c-0.3,0.2-0.6,0-0.9,0.3c-0.1,0.1-0.1,0.3-0.2,0.4c0.1,0.1,0.1,0.2,0.1,0.4  c-0.1,0.1-0.2,0.1-0.3,0.1c-0.2,0.3,0,0.6-0.1,0.8c-0.2,0.3-1.1,0.2-1,0.6c-0.4-0.5-0.5,0.7-0.6,0.9c-0.1,0.3-0.9,1.1-0.2,1.2  c-0.6-0.3-0.7,0.9-0.6,1.1c0,0.2,0.2,1.2-0.3,1c0.1,0.2,0.7,0.6,0.9,0.6c0.3,0,0.3-0.4,0.5-0.6c0,0.1-0.1,0.1-0.1,0.2h0.1  c-0.1,0-0.1,0.1-0.1,0.2c0.3-0.2,0-0.6,0.3-0.8c-0.3,0.3,0,0.7-0.1,1c0,0.5-0.1,0.5-0.4,0.8C20,27.5,19.1,28,19,28.7  c-0.1,0.6,0.6,1,0.5,1.6c0,0.4-0.3,0.4-0.2,0.7c0.1,0.3,0.9,0.4,1.2,0.5c1.8,1,2.6,3.7,3.7,5.4c0.5,0.8,1,1.5,1.6,2.3  c0.7,0.8,0.3,1.7,1,2.5c1.2,1.4,3.1,1.7,4.7,2.4c0.9,0.4,1.4,1.1,2.2,1.6c0.8,0.6,0.9,1.3,1,2.3c0.1,1.2,0.3,2.5,0.1,3.7  c-0.1,0.4-0.4,0.9-0.4,1.4c0,0,0.2,0.3,0.2,0.4c0.2,0.5,0.1,1.1,0.1,1.6c0,1.1-0.1,2.4-0.4,3.5c-0.2,0.6-0.4,1.3-0.3,1.9  c0.1,0.6,0.3,0.9,0.1,1.5c-0.3,1.1,0.1,2,0.2,3.1c0.1,1.3-0.2,2.5-0.5,3.7c0,0.2-0.5,1.9-0.5,1.9c0,0.1-0.2,1.1-0.4,0.8  c0,0.1,0,0.7,0,0.8c0.1,0.4,0.3,0.8,0.4,1.2c0,0.1,0.4,1.6,0.3,1.6c-0.5,0-0.4,0.7-0.4,1.2c0,0.1,0.2,1.3,0.8,1.3  c0.2,0,0.2-0.3,0.3-0.3c0.2-0.1,0.7-0.1,0.7,0c-0.1,0.1-0.3,0.1-0.3,0.2s-0.2,0.7,0.2,0.3c0.1,0,0.2,0.6,0.2,0.6  c-0.5-0.3-0.2,0.7-0.2,0.8c-0.3-0.2-0.2,0.9-0.1,0.9c0.3-0.1-0.1,0.1-0.1,0.4c0,0.2,0.5,0.7,0.6,0.3c0,0.6-0.5,0.9-0.6,1.3  C34.9,82.8,34.9,83.3,34.9,83.9z M35.6,43.3c0.1-0.2-0.5-0.5-0.5-0.5s0,0.2-0.1,0.2c-0.2-0.1-0.1-0.4-0.1-0.5  c0.1,0.1,0.2,0.1,0.2,0.2c0-0.2-0.2-0.5-0.2-0.6c0,0,0.1-0.1,0.2-0.1s0.7,0.4,0.7,0.6c0.1,0.2,0.4,0.3,0.6,0.3  c0,0.1-0.2,0.1-0.2,0.1s0.1,0.1,0.2,0.1c0.1,0,0.2,0.1,0.2,0.2s-0.3,0.2-0.4,0.2c0,0.1,0,0.2,0,0.3c-0.1,0.1-0.2-0.4-0.1-0.5  C36.1,43.4,35.8,43.4,35.6,43.3z"/>
<path d="M43.6,93.8c-0.7,0-1.4-0.3-1.9-0.7c-0.2-0.2-0.3-0.4-0.5-0.6c0.1,0.1-0.3-0.3-0.4-0.3c-0.1-0.1,0-0.5,0.2-0.2  c-0.1-0.4-0.4-0.5-0.6-0.6c-0.2,0.1-0.5,0-0.4-0.1c-0.2,0-0.6,0.3-0.8,0.4c0.3,0.2,0.1,0.3,0.1,0.2c-0.6,1.1,0.8,0.1,0.9,0.5  c0.1,0.2-0.4,0.3-0.5,0.4c-0.4,0.6,0.7,0.6,0.9,0.9c-0.2,0.2-0.6-0.3-0.4,0c-0.3-0.3-0.7-0.1-1.1-0.2c0,0.1,0.5,0.3,0.6,0.4  c-0.3,0-0.8-0.5-0.8,0c-0.4-0.3-0.5,0.2-0.7,0c0.1,0.1,0,0,0,0.1c0.1,0.2,0.2,0.2,0.3,0.2s0.3-0.2,0.3-0.2s0,0.1,0,0.2  c0.1,0,0.2,0,0.2-0.1h0.1c0,0.1,0,0.1,0,0.2c0-0.1,0.1-0.1,0.2-0.1c-0.2,0.2,0,0.2,0,0.2c0.2,0,0.4,0,0.4-0.2c0,0.3,0.3,0.1,0.4,0  v0.1c0,0,0-0.1,0.1-0.1c-0.1,0.5,0.9,0.3,0.8,0C41.2,94.3,43.6,94.6,43.6,93.8z"/>
<path fill="#8c8c8c" d="M38.6,93.3c0.1,0.2,0.5,0.1,0.2,0.5c-0.1,0-0.1,0-0.2-0.1l0.1-0.1c-0.1,0-0.1,0-0.1-0.1C38.1,93.8,38.3,93.1,38.6,93.3  C38.5,93.4,38.5,93.3,38.6,93.3C38.5,93.3,38.6,93.3,38.6,93.3"/>
<path fill="#8c8c8c" d="M38.2,93.3L38.2,93.3c0,0.5-0.2,0.6-0.3,0.2c-0.1,0-0.2-0.2-0.2-0.2c0.2,0,0.2-0.1,0.3,0C38.1,93.1,38.1,93.3,38.2,93.3"/>
<path fill="#8c8c8c" d="M39.2,93.5c-0.2,0-0.3-0.2-0.4-0.3C38.7,93,39,93.1,39,93.1c-0.1-0.1-0.1-0.3,0-0.4l0.2,0.6c-0.1,0-0.2,0-0.3-0.1  C39.1,93.3,39.2,93.4,39.2,93.5"/>
<path fill="#8c8c8c" d="M37.3,93.6c-0.2,0,0.1,0-0.2-0.1l0.2-0.1c0-0.1-0.2-0.2-0.3-0.2c0.1,0.1,0.1,0.2,0,0.3c-0.2,0.1-0.2-0.4-0.2-0.4  c-0.1,0-0.3,0.1-0.3,0.1c0-0.3,0.5-0.2,0.5-0.2s-0.2,0-0.3-0.2c0.1,0,0.2,0,0.3,0l-0.1-0.1c0.2,0,0.3,0,0.5,0.3c0,0,0-0.1,0-0.2  c0.2,0,0.2,0.1,0.2,0.2c0.1-0.1,0.2,0,0.3,0c-0.1,0.1-0.3,0.1-0.1,0.3c-0.1,0-0.1,0-0.2,0v0.1l-0.1-0.1  C37.4,93.5,37.4,93.6,37.3,93.6"/>
</svg>